<?xml version="1.0" encoding="utf-8"?>
<!-- Generator: Adobe Illustrator 25.4.1, SVG Export Plug-In . SVG Version: 6.00 Build 0)  -->
<svg version="1.1" id="Capa_1" xmlns="http://www.w3.org/2000/svg" xmlns:xlink="http://www.w3.org/1999/xlink" x="0px" y="0px"
	 viewBox="0 0 300 300" style="enable-background:new 0 0 300 300;" xml:space="preserve">
<style type="text/css">
	.st0{fill:#455A64;}
	.st1{fill:#FF725E;}
</style>
<g id="Capa_3">
</g>
<g id="Capa_1_00000156572003441381512030000003305683809612995754_">
	<g>
		<path class="st0" d="M131,196.3c-0.4-0.3-0.8-0.6-1.2-0.9c-15.9-10.4-31.9-20.8-47.8-31.2c-0.2-0.1-0.6-0.2-0.6-0.6
			c4.4,0,8.8,0,13.1,0c2.5,0,5-0.2,7.5-0.7c24.2-4.6,36.7-32.4,24.2-53.6c-3.4-5.8-8.1-10.3-14.1-13.6c-4-2.2-8.3-3.6-12.8-4
			c-1.4-0.3-2.8-0.3-4.2-0.3c-12.8,0-25.5,0-38.2,0c-0.4,0-0.8,0-1.3,0c-0.4,0-0.4,0.2-0.3,0.6c0,3.5,0,7-0.1,10.5
			c0,0.9,0.2,1.2,1.2,1.2c12.7,0,25.5,0,38.2,0c6.9,0,12.8,2.4,17.7,7.3c9.7,9.8,8.6,26.7-2.3,35.1c-2.9,2.2-6.1,3.8-9.7,4.7
			c-1.6,0.2-3.2,0.4-4.7,0.6c-0.2,0-0.5-0.1-0.7-0.1c-10.3,0-20.6,0-30.9,0c-0.2,0-0.5,0-0.7,0.1c-0.3-0.1-0.7-0.4-0.8,0.2
			c0,4.5,0,8.9-0.1,13.4c0,0.8,0.2,1.2,0.9,1.6c10.8,7,21.6,14,32.3,21c4.6,3,9.1,5.9,13.7,8.8c0.2,0.2,0.5,0.1,0.7,0.1
			c6.9,0,13.9,0,20.8,0c0.2,0,0.5,0.1,0.6-0.1C131.5,196.4,131.2,196.4,131,196.3z"/>
		<path class="st0" d="M83.5,164.2c3.9,0,7.7,0,11.6,0c0,0,0-0.1,0-0.1C91.2,164.1,87.4,164.1,83.5,164.2
			C83.5,164.1,83.5,164.2,83.5,164.2z"/>
	</g>
</g>
<g id="Capa_2_00000000218074531742802240000008513027158332407471_">
	<path class="st1" d="M257.1,91.8c-0.4,0-0.6,0-0.7,0c-4.7,0-9.3,0-14,0c-0.8,0-1.3,0.2-1.8,0.8c-3.3,4.1-6.6,8.1-9.9,12.2
		c-10.7,13.2-21.4,26.4-32.1,39.6c-0.6,0.7-0.8,0.6-1.3,0c-1.9-2.4-3.8-4.6-5.7-7l0,0c-0.2-0.4-0.4-0.7-0.8-1
		c-1.7-2.1-3.3-4.2-5-6.2c-3.1-3.8-6.2-7.5-9.2-11.3l0,0c-0.1-0.2-0.1-0.4-0.4-0.4l0,0c-0.5-0.7-1-1.4-1.5-2
		c-3.7-4.6-7.4-9.1-11.1-13.7c-2.7-3.3-5.5-6.7-8.2-10c-0.4-0.9-1-1.1-1.9-1.1c-2.4,0.1-4.9,0.1-7.3,0c-1.1,0-1.4,0.2-1.4,1.4
		c0,34.6,0,69.2,0,103.9c0,0.2,0,0.4,0,0.6c-0.1,0.6,0.2,0.7,0.7,0.7c3.6,0,7.3,0,10.9-0.1l0,0c1.1,0.2,0.6-0.6,0.6-1
		c0-27.3,0-54.5,0-81.8c0-0.3-0.2-0.7,0.1-1c1.1,1.3,2.2,2.6,3.2,3.8l0,0c0.2,0.4,0.5,0.8,0.9,1.1l0,0l0,0c3.5,4.4,7,8.8,10.6,13.1
		l0,0l0,0c0.1,0.3,0.3,0.5,0.6,0.7l0,0l0,0c3.1,3.9,6.2,7.8,9.4,11.6c3.4,4.2,6.8,8.5,10.2,12.7c0.2,0.5,0.6,0.4,1,0.4
		c3.3,0,6.7,0,10,0c0.2,0,0.4,0.1,0.6-0.1c2.1-2.8,4.5-5.4,6.4-8.2c0.1-0.1,0.2-0.2,0.2-0.2s0.1-0.1,0.2-0.2
		c2.8-3.3,5.6-6.7,8.3-10.2l0,0c0.6-0.6,1.1-1.2,1.6-1.9c0.1-0.1,0.1-0.1,0.2-0.2l0,0c0.2-0.1,0.3-0.2,0.4-0.5l0,0l0,0
		c0.2-0.3,0.5-0.6,0.7-0.9l0,0c0.3,0,0.3-0.2,0.4-0.4c1.2-1.5,2.4-2.9,3.6-4.4c3.4-4.2,6.8-8.5,10.2-12.7l0,0
		c0.3-0.2,0.5-0.4,0.6-0.7l0,0c3.1-3.8,6.1-7.5,9.2-11.2c3.4-4.2,6.8-8.5,10.2-12.7l0,0c0.2-0.1,0.3-0.2,0.4-0.4l0,0l0,0
		C256.4,92.6,256.7,92.3,257.1,91.8z"/>
</g>
</svg>
