<?xml version="1.0" encoding="utf-8"?>
<!-- Generator: Adobe Illustrator 25.4.1, SVG Export Plug-In . SVG Version: 6.00 Build 0)  -->
<svg version="1.1" xmlns="http://www.w3.org/2000/svg" xmlns:xlink="http://www.w3.org/1999/xlink" x="0px" y="0px"
	 viewBox="0 0 300 300" style="enable-background:new 0 0 300 300;" xml:space="preserve">
<style type="text/css">
	.st0{fill:#E5E5E5;}
	.st1{fill:#455A64;}
	.st2{fill:#FF725E;}
</style>
<g id="Capa_3">
	<path class="st0" d="M233.81,286.09H65.42c-34.61,0-62.66-28.05-62.66-62.66V67.5c0-34.61,28.05-62.66,62.66-62.66h168.39
		c34.61,0,62.66,28.05,62.66,62.66v155.94C296.47,258.04,268.42,286.09,233.81,286.09z"/>
</g>
<g id="Capa_1">
	<g>
		<path class="st1" d="M131.04,196.32c-0.4-0.28-0.8-0.58-1.21-0.85c-15.95-10.39-31.9-20.78-47.84-31.18
			c-0.21-0.14-0.55-0.17-0.56-0.6c4.39,0,8.76,0,13.14,0c2.52,0,5.01-0.2,7.48-0.67c24.19-4.6,36.72-32.41,24.16-53.61
			c-3.45-5.82-8.13-10.35-14.07-13.57c-4.01-2.17-8.26-3.61-12.84-3.99c-1.38-0.33-2.8-0.32-4.2-0.32
			c-12.75-0.02-25.49-0.01-38.24-0.01c-0.42,0-0.85,0.01-1.27,0.01c-0.43,0-0.44,0.24-0.35,0.56c-0.02,3.5-0.01,7-0.08,10.49
			c-0.02,0.92,0.16,1.23,1.17,1.23c12.73-0.04,25.46-0.02,38.19-0.03c6.92,0,12.81,2.42,17.7,7.34c9.7,9.77,8.57,26.72-2.32,35.12
			c-2.9,2.24-6.12,3.75-9.65,4.67c-1.58,0.19-3.16,0.39-4.74,0.58c-0.24-0.02-0.49-0.06-0.73-0.06c-10.31,0-20.62,0-30.94,0
			c-0.24,0-0.49,0.04-0.73,0.06c-0.32-0.05-0.71-0.36-0.83,0.25c-0.01,4.46-0.01,8.91-0.06,13.37c-0.01,0.76,0.22,1.18,0.87,1.6
			c10.79,6.99,21.56,14.02,32.35,21.03c4.55,2.96,9.12,5.88,13.69,8.82c0.22,0.16,0.47,0.13,0.71,0.13c6.93,0,13.86,0,20.79,0
			c0.21,0,0.49,0.05,0.6-0.06C131.46,196.4,131.21,196.35,131.04,196.32z"/>
		<path class="st1" d="M83.5,164.19c3.87,0,7.74,0,11.62,0c0-0.03,0-0.06,0-0.09c-3.87,0-7.74,0-11.62,0
			C83.5,164.13,83.5,164.16,83.5,164.19z"/>
	</g>
</g>
<g id="Capa_2">
	<path class="st2" d="M257.08,91.84c-0.4,0-0.56,0-0.73,0c-4.67,0-9.34,0.02-14.01-0.02c-0.77-0.01-1.28,0.2-1.77,0.83
		c-3.27,4.09-6.59,8.13-9.88,12.19c-10.71,13.2-21.42,26.41-32.1,39.63c-0.57,0.7-0.8,0.65-1.33-0.02c-1.86-2.35-3.8-4.65-5.7-6.97
		c0,0,0,0,0,0c-0.2-0.37-0.44-0.7-0.77-0.96c-1.67-2.08-3.32-4.17-5.01-6.24c-3.07-3.77-6.16-7.53-9.24-11.29c0,0,0,0,0,0
		c-0.09-0.2-0.14-0.44-0.44-0.44l0,0c-0.49-0.67-0.96-1.36-1.49-2.01c-3.69-4.56-7.39-9.12-11.1-13.67
		c-2.72-3.34-5.46-6.66-8.19-9.99c-0.36-0.87-1-1.1-1.93-1.07c-2.44,0.07-4.88,0.08-7.32,0c-1.08-0.04-1.39,0.23-1.38,1.36
		c0.03,34.63,0.03,69.25,0.03,103.88c0,0.21,0.02,0.43,0,0.64c-0.08,0.56,0.16,0.72,0.71,0.72c3.64-0.03,7.29-0.04,10.93-0.05l0,0
		c1.06,0.18,0.62-0.65,0.62-1.03c0.02-27.27,0.02-54.54,0.03-81.81c0-0.31-0.16-0.68,0.15-0.97c1.1,1.3,2.17,2.57,3.23,3.83h0
		c0.2,0.42,0.5,0.77,0.86,1.06c0,0,0,0,0,0c0,0,0,0,0,0c3.48,4.44,7.03,8.82,10.65,13.15c0,0,0,0,0,0c0,0,0,0,0,0
		c0.12,0.29,0.31,0.52,0.57,0.7c0,0,0,0,0,0v0c3.12,3.87,6.24,7.75,9.35,11.62c3.41,4.23,6.81,8.46,10.22,12.69
		c0.2,0.49,0.64,0.35,1,0.35c3.33,0.01,6.66,0,10,0.01c0.21,0,0.42,0.05,0.59-0.14c2.06-2.81,4.47-5.35,6.45-8.22
		c0.08-0.07,0.23-0.22,0.23-0.22s0.14-0.15,0.21-0.22c2.82-3.34,5.58-6.74,8.26-10.19c0,0,0,0,0,0c0.59-0.57,1.1-1.2,1.55-1.89
		c0.05-0.07,0.11-0.14,0.16-0.21v0c0.2-0.09,0.33-0.24,0.36-0.46l0,0c0,0,0,0,0,0c0.23-0.29,0.46-0.58,0.68-0.87v0
		c0.26-0.01,0.29-0.23,0.38-0.4c1.21-1.46,2.43-2.92,3.62-4.4c3.42-4.24,6.84-8.48,10.25-12.73v0c0.26-0.17,0.46-0.4,0.57-0.7h0
		c3.06-3.75,6.14-7.48,9.19-11.24c3.43-4.23,6.83-8.47,10.24-12.71v0c0.19-0.09,0.32-0.24,0.36-0.45h0l0,0
		C256.4,92.6,256.67,92.3,257.08,91.84z"/>
</g>
</svg>
