<?xml version="1.0" encoding="utf-8"?>
<!-- Generator: Adobe Illustrator 25.4.1, SVG Export Plug-In . SVG Version: 6.00 Build 0)  -->
<svg version="1.1" xmlns="http://www.w3.org/2000/svg" xmlns:xlink="http://www.w3.org/1999/xlink" x="0px" y="0px"
	 viewBox="0 0 500 500" style="enable-background:new 0 0 500 500;" xml:space="preserve">
<style type="text/css">
	.st0{display:none;}
	.st1{display:inline;}
	.st2{fill:#F5F5F5;}
	.st3{fill:#FFFFFF;}
	.st4{fill:#E0E0E0;}
	.st5{fill:#263238;}
	.st6{fill:#EBEBEB;}
	.st7{fill:#FAFAFA;}
	.st8{fill:#FF725E;}
	.st9{fill:#455A64;}
	.st10{opacity:0.3;}
	.st11{display:inline;fill:#F5F5F5;}
	.st12{opacity:0.6;}
	.st13{fill:#B78876;}
	.st14{fill:#AA6550;}
</style>
<g id="Background_Complete" class="st0">
	<g class="st1">
		<g>
			<path class="st2" d="M91.17,68.46c0-22.5-20.33-40.25-43.63-35.88c-14.65,2.75-26.33,14.72-28.9,29.4
				c-1.6,9.18,0.29,17.81,4.48,24.94H23.1l0.1,0.14c1.4,2.36,3.16,4.05,4.93,6.53l21.22,28.11c2.64,3.5,7.89,3.5,10.53,0
				l20.87-27.64c0,0,3.89-4.64,5.31-7.03l0.08-0.1h-0.01C89.31,81.5,91.17,75.21,91.17,68.46z M54.62,84.38
				c-8.88,0-16.08-7.2-16.08-16.08c0-8.88,7.2-16.08,16.08-16.08c8.88,0,16.08,7.2,16.08,16.08C70.71,77.18,63.51,84.38,54.62,84.38
				z"/>
		</g>
	</g>
	<g class="st1">
		<g>
			<path class="st2" d="M485.36,290.12c0-9.92-8.96-17.74-19.23-15.82c-6.46,1.21-11.61,6.49-12.74,12.96
				c-0.71,4.05,0.13,7.85,1.97,11h-0.01l0.05,0.06c0.62,1.04,1.39,1.79,2.17,2.88l9.35,12.39c1.16,1.54,3.48,1.54,4.64,0l9.2-12.19
				c0,0,1.72-2.05,2.34-3.1l0.03-0.04h-0.01C484.55,295.87,485.36,293.1,485.36,290.12z M469.25,297.14c-3.92,0-7.09-3.17-7.09-7.09
				c0-3.92,3.17-7.09,7.09-7.09c3.92,0,7.09,3.17,7.09,7.09C476.34,293.96,473.17,297.14,469.25,297.14z"/>
		</g>
	</g>
	<g class="st1">
		<g>
			<g>
				
					<ellipse transform="matrix(0.7071 -0.7071 0.7071 0.7071 -157.299 397.5936)" class="st2" cx="401.29" cy="388.67" rx="40.34" ry="40.34"/>
			</g>
		</g>
		<g>
			<g>
				<path class="st3" d="M401.29,422.25c-18.51,0-33.58-15.06-33.58-33.58s15.06-33.58,33.58-33.58s33.58,15.06,33.58,33.58
					S419.8,422.25,401.29,422.25z M401.29,360.84c-15.35,0-27.83,12.48-27.83,27.83s12.48,27.83,27.83,27.83
					c15.35,0,27.83-12.48,27.83-27.83S416.63,360.84,401.29,360.84z"/>
			</g>
		</g>
		<g>
			<g>
				<path class="st3" d="M401.06,400.15c-6.82,0-12.37-5.55-12.37-12.37c0-6.82,5.55-12.37,12.37-12.37
					c6.82,0,12.37,5.55,12.37,12.37C413.43,394.61,407.88,400.15,401.06,400.15z M401.06,381.17c-3.65,0-6.62,2.97-6.62,6.62
					c0,3.65,2.97,6.62,6.62,6.62c3.65,0,6.62-2.97,6.62-6.62C407.68,384.14,404.71,381.17,401.06,381.17z"/>
			</g>
		</g>
		<g>
			<g>
				<polygon class="st4" points="401.06,387.79 385.43,387.79 388.16,392.61 351.37,409.47 352.61,411.54 389.52,394.87 
					392.05,399.66 				"/>
			</g>
		</g>
		<g>
			<g>
				<path class="st4" d="M351.37,409.47l-0.39-0.38c-1.93-1.88-4.72-2.58-7.3-1.82L329,411.54l8.17,3.59l-3.28,8.73l13.77-4.91
					c3.11-1.11,5.12-4.12,4.95-7.41l0,0L351.37,409.47z"/>
			</g>
		</g>
	</g>
	<g class="st1">
		<g>
			<g>
				<g>
					<path class="st4" d="M173.35,417.93c0-0.01,0.11-0.04,0.3-0.1c0.22-0.06,0.5-0.15,0.87-0.25c0.78-0.22,1.9-0.54,3.34-0.95
						c2.93-0.82,7.16-2.01,12.5-3.51l-0.11,0.2c-0.64-2.14-1.36-4.55-2.13-7.12l-0.04-0.12l0.1-0.08c3.13-2.61,6.22-6.05,8.72-10.26
						c1.25-2.11,2.24-4.47,2.92-6.99c0.71-2.52,0.81-5.27,0.47-8c-0.85-5.45-3.62-11-8.22-15c-4.54-4.03-10.59-6.7-17.02-7.33
						c-4.8-0.47-9.57,0.64-13.67,2.73c-4.16,2.01-7.64,5.05-10.18,8.57c-2.56,3.53-3.91,7.65-4.38,11.64
						c-0.06,1.01-0.22,2-0.19,2.99c0.03,0.99,0.06,1.96,0.08,2.93c0.18,1.92,0.49,3.78,1,5.54c0.53,1.75,1.21,3.4,2.03,4.92
						c0.84,1.51,1.83,2.87,2.88,4.09c2.13,2.44,4.58,4.26,6.96,5.62c4.8,2.72,9.25,3.82,12.4,4.29l0.07,0.01l0.01,0.07
						c0.42,1.98,0.73,3.5,0.95,4.54c0.1,0.5,0.18,0.89,0.24,1.17C173.33,417.79,173.35,417.92,173.35,417.93
						c0,0.01-0.04-0.12-0.1-0.37c-0.07-0.28-0.16-0.65-0.28-1.14c-0.25-1.05-0.61-2.58-1.08-4.57l0.09,0.08
						c-3.2-0.43-7.67-1.48-12.55-4.19c-2.42-1.36-4.92-3.19-7.1-5.65c-1.08-1.23-2.09-2.61-2.96-4.15c-0.85-1.54-1.55-3.22-2.09-5
						c-0.53-1.79-0.85-3.68-1.04-5.63c-0.03-0.98-0.06-1.97-0.1-2.97c-0.03-1,0.13-2.01,0.19-3.04c0.46-4.06,1.83-8.28,4.44-11.89
						c2.59-3.6,6.14-6.7,10.37-8.75c4.16-2.14,9.06-3.27,13.96-2.8c6.56,0.64,12.71,3.36,17.33,7.47c2.32,2.05,4.24,4.47,5.61,7.11
						c0.4,0.63,0.66,1.33,0.95,2c0.29,0.67,0.6,1.34,0.79,2.04c0.21,0.69,0.44,1.38,0.63,2.07c0.13,0.71,0.25,1.41,0.38,2.11
						c0.34,2.8,0.23,5.62-0.51,8.19c-0.7,2.57-1.72,4.96-3,7.1c-2.56,4.26-5.67,7.7-8.87,10.33l0.06-0.2
						c0.75,2.58,1.45,4.99,2.08,7.14l0.05,0.16l-0.16,0.04c-5.4,1.44-9.69,2.58-12.65,3.36c-1.44,0.37-2.55,0.67-3.33,0.87
						c-0.36,0.09-0.64,0.16-0.85,0.21C173.44,417.92,173.34,417.94,173.35,417.93z"/>
				</g>
			</g>
		</g>
		<g>
			<g>
				<g>
					<path class="st4" d="M191.95,417.94c0.04,0.15-3.85,1.34-8.69,2.66c-4.84,1.33-8.8,2.28-8.84,2.14
						c-0.04-0.15,3.85-1.34,8.69-2.66C187.95,418.75,191.91,417.8,191.95,417.94z"/>
				</g>
			</g>
		</g>
		<g>
			<g>
				<g>
					<path class="st4" d="M188.09,426.12c0.06,0.13-1.25,0.8-3.01,1.21c-1.75,0.42-3.22,0.43-3.23,0.28c-0.01-0.16,1.4-0.4,3.1-0.82
						C186.66,426.4,188.03,425.98,188.09,426.12z"/>
				</g>
			</g>
		</g>
		<g>
			<g>
				<g>
					<path class="st4" d="M176.92,416.95c-0.01,0-0.04-0.09-0.1-0.28c-0.06-0.22-0.14-0.5-0.23-0.85c-0.2-0.79-0.48-1.88-0.84-3.27
						c-0.72-2.89-1.74-7-2.99-12.06c-0.63-2.55-1.31-5.34-2.04-8.34c-0.18-0.73-0.44-1.47-0.88-2.06c-0.41-0.61-1.19-0.93-1.82-0.61
						c-0.63,0.31-0.93,1.14-0.94,1.91c-0.02,0.78,0.36,1.54,0.89,2.15c1.09,1.24,2.92,1.77,4.63,1.54c1.73-0.21,3.26-1.44,4.06-3.07
						c0.82-1.62,1.01-3.59,0.58-5.42c-0.22-0.91-0.58-1.83-1.24-2.45c-0.63-0.61-1.7-0.83-2.4-0.33c-0.69,0.5-0.81,1.59-0.45,2.39
						c0.36,0.84,1.1,1.48,1.87,2.05c1.53,1.13,3.29,1.97,5.11,2.11c0.9,0.07,1.82-0.05,2.62-0.39c0.8-0.36,1.52-0.91,2.05-1.59
						c0.53-0.68,0.88-1.49,0.92-2.32c0.05-0.83-0.21-1.65-0.76-2.24c-0.53-0.59-1.33-0.93-2.05-0.71c-0.72,0.21-1.26,0.87-1.52,1.58
						c-0.5,1.47-0.06,3.11,0.12,4.61c0.48,3.04,1.03,5.86,1.53,8.44c1.03,5.11,1.87,9.26,2.46,12.18c0.28,1.41,0.51,2.52,0.67,3.31
						c0.07,0.35,0.12,0.64,0.16,0.86c0.03,0.2,0.05,0.3,0.04,0.3c-0.01,0-0.04-0.09-0.09-0.29c-0.06-0.22-0.13-0.5-0.22-0.85
						c-0.19-0.79-0.44-1.89-0.77-3.29c-0.65-2.86-1.58-7.01-2.63-12.15c-0.52-2.57-1.09-5.39-1.6-8.44
						c-0.11-0.77-0.24-1.54-0.32-2.34c-0.08-0.8-0.09-1.67,0.2-2.5c0.3-0.81,0.9-1.6,1.83-1.89c0.94-0.3,1.95,0.15,2.56,0.84
						c0.65,0.69,0.96,1.67,0.9,2.61c-0.04,0.95-0.44,1.87-1.02,2.61c-0.58,0.76-1.36,1.36-2.25,1.76c-0.9,0.39-1.9,0.51-2.87,0.44
						c-1.97-0.15-3.81-1.03-5.4-2.21c-0.79-0.58-1.6-1.27-2.04-2.27c-0.43-0.97-0.34-2.31,0.63-3.05c1-0.69,2.31-0.36,3.09,0.38
						c0.8,0.75,1.17,1.76,1.4,2.72c0.46,1.96,0.26,4.04-0.63,5.79c-0.85,1.75-2.55,3.12-4.46,3.35c-1.87,0.25-3.85-0.32-5.08-1.72
						c-0.59-0.68-1.03-1.57-1.01-2.49c0.02-0.88,0.34-1.88,1.22-2.33c0.43-0.22,0.94-0.22,1.37-0.06c0.45,0.16,0.78,0.48,1.04,0.82
						c0.5,0.69,0.76,1.48,0.95,2.24c0.71,3,1.37,5.8,1.98,8.35c1.19,5.08,2.15,9.2,2.82,12.1c0.32,1.4,0.56,2.5,0.74,3.3
						c0.07,0.35,0.13,0.64,0.18,0.86C176.92,416.85,176.93,416.95,176.92,416.95z"/>
				</g>
			</g>
		</g>
		<g>
			<g>
				<g>
					<path class="st4" d="M191.31,421.68c0.04,0.15-3.11,1.13-7.04,2.21c-3.93,1.07-7.14,1.83-7.18,1.68
						c-0.04-0.15,3.11-1.13,7.04-2.21C188.06,422.29,191.27,421.54,191.31,421.68z"/>
				</g>
			</g>
		</g>
	</g>
</g>
<g id="Background_Simple" class="st0">
	<g class="st1">
		<path class="st2" d="M437.85,94.6l-2.43-4.01C414.9,56.78,377.8,36.4,338.7,38.88c-5.03,0.32-10.03,1-14.97,2.06
			c-35.56,7.61-66.5,34.5-79.32,68.94c-7.54,20.25-9.65,43.57-23.96,59.65c-18.63,20.92-50.25,21.58-78.06,20.71
			c-27.8-0.87-59.45-0.13-77.99,20.88c-11.61,13.15-15.3,31.86-14.36,49.48c2.48,46.64,34.98,88.35,76.31,109.07
			c41.33,20.73,90,22.59,135.23,13.47c63.37-12.77,123.63-47.86,159.86-102.04C457.66,226.9,466.83,153.08,437.85,94.6z"/>
	</g>
	<g class="st1">
		
			<ellipse transform="matrix(0.1701 -0.9854 0.9854 0.1701 -74.7087 707.4697)" class="st2" cx="382.68" cy="398.09" rx="27.09" ry="27.09"/>
	</g>
</g>
<g id="Floor" class="st0">
	<g class="st1">
		<g>
			<path class="st5" d="M463.14,467.86c0,0.14-95.44,0.26-213.13,0.26c-117.74,0-213.15-0.12-213.15-0.26
				c0-0.14,95.41-0.26,213.15-0.26C367.71,467.6,463.14,467.71,463.14,467.86z"/>
		</g>
	</g>
</g>
<g id="Screen" class="st0">
	<g class="st1">
		<g>
			<rect x="54.68" y="65.6" class="st4" width="390.85" height="25.04"/>
		</g>
		<g>
			<rect x="54.62" y="113.64" class="st3" width="390.85" height="219.2"/>
		</g>
		<g>
			<polygon class="st6" points="54.68,90.46 108.35,90.46 113.66,74.97 200.66,74.97 205.97,90.46 445.53,90.46 445.53,114.17 
				54.68,114.17 			"/>
		</g>
		<g>
			<path class="st5" d="M67.58,75.59c0,1.62-1.32,2.94-2.94,2.94c-1.62,0-2.94-1.32-2.94-2.94c0-1.62,1.32-2.94,2.94-2.94
				C66.27,72.65,67.58,73.96,67.58,75.59z"/>
		</g>
		<g>
			<path class="st5" d="M76.67,75.59c0,1.62-1.32,2.94-2.94,2.94c-1.62,0-2.94-1.32-2.94-2.94c0-1.62,1.32-2.94,2.94-2.94
				C75.36,72.65,76.67,73.96,76.67,75.59z"/>
		</g>
		<g>
			<path class="st5" d="M85.76,75.59c0,1.62-1.32,2.94-2.94,2.94c-1.62,0-2.94-1.32-2.94-2.94c0-1.62,1.32-2.94,2.94-2.94
				C84.45,72.65,85.76,73.96,85.76,75.59z"/>
		</g>
		<g>
			<path class="st7" d="M402.33,109.45H134.18c-4.11,0-7.44-3.33-7.44-7.44l0,0c0-4.11,3.33-7.44,7.44-7.44h268.15
				c4.11,0,7.44,3.33,7.44,7.44l0,0C409.77,106.12,406.44,109.45,402.33,109.45z"/>
		</g>
		<g>
			<path class="st4" d="M140.6,103v2.51h-1.27v-2.32c0-0.71-0.33-1.04-0.89-1.04c-0.61,0-1.05,0.38-1.05,1.18v2.17h-1.27v-6.06h1.27
				v2.12c0.34-0.34,0.83-0.52,1.4-0.52C139.82,101.06,140.6,101.66,140.6,103z"/>
			<path class="st4" d="M144.58,105.3c-0.26,0.19-0.65,0.28-1.04,0.28c-1.04,0-1.64-0.53-1.64-1.58v-1.8h-0.68v-0.98h0.68v-1.07
				h1.27v1.07h1.09v0.98h-1.09v1.79c0,0.38,0.2,0.58,0.55,0.58c0.19,0,0.38-0.06,0.51-0.16L144.58,105.3z"/>
			<path class="st4" d="M148.04,105.3c-0.26,0.19-0.65,0.28-1.04,0.28c-1.04,0-1.64-0.53-1.64-1.58v-1.8h-0.68v-0.98h0.68v-1.07
				h1.27v1.07h1.09v0.98h-1.09v1.79c0,0.38,0.2,0.58,0.55,0.58c0.19,0,0.38-0.06,0.51-0.16L148.04,105.3z"/>
			<path class="st4" d="M153.54,103.32c0,1.38-0.96,2.26-2.19,2.26c-0.55,0-1-0.17-1.32-0.53v2.05h-1.27v-5.98h1.22v0.51
				c0.32-0.38,0.79-0.57,1.38-0.57C152.59,101.06,153.54,101.94,153.54,103.32z M152.25,103.32c0-0.76-0.48-1.22-1.12-1.22
				s-1.12,0.46-1.12,1.22c0,0.76,0.48,1.22,1.12,1.22S152.25,104.08,152.25,103.32z"/>
			<path class="st4" d="M154.08,101.85c0-0.47,0.35-0.78,0.79-0.78c0.44,0,0.79,0.31,0.79,0.78c0,0.47-0.35,0.8-0.79,0.8
				C154.43,102.65,154.08,102.31,154.08,101.85z M154.08,104.78c0-0.47,0.35-0.78,0.79-0.78c0.44,0,0.79,0.31,0.79,0.78
				c0,0.47-0.35,0.8-0.79,0.8C154.43,105.58,154.08,105.25,154.08,104.78z"/>
			<path class="st4" d="M158.8,98.64h1.13l-2.69,7.69h-1.13L158.8,98.64z"/>
			<path class="st4" d="M161.41,98.64h1.13l-2.69,7.69h-1.13L161.41,98.64z"/>
		</g>
		<g>
			<g>
				<path class="st7" d="M402.09,153.06H168.46c-7.29,0-13.19-5.91-13.19-13.19l0,0c0-7.28,5.91-13.19,13.19-13.19h233.63
					c7.29,0,13.19,5.91,13.19,13.19l0,0C415.28,147.16,409.37,153.06,402.09,153.06z"/>
			</g>
			<g>
				<g>
					<path class="st5" d="M402.09,153.06c-0.03-0.11,2.02,0.24,5.4-1.22c1.64-0.77,3.6-2.04,5.16-4.22
						c0.78-1.08,1.48-2.35,1.94-3.81c0.45-1.46,0.67-3.11,0.55-4.83c-0.12-1.72-0.59-3.52-1.48-5.21c-0.89-1.7-2.24-3.25-3.93-4.49
						c-1.69-1.25-3.79-2.07-6.04-2.36c-1.13-0.13-2.3-0.1-3.49-0.1c-1.19,0-2.41,0-3.64,0.01c-9.89,0.01-21.14,0.02-33.59,0.04
						c-49.78,0.02-118.54,0.05-194.48,0.08c-2.32,0.04-4.65,0.61-6.63,1.83c-2,1.17-3.62,2.92-4.75,4.92
						c-2.21,4.04-2.07,9.24,0.42,13.06c1.19,1.93,2.93,3.49,4.9,4.56c2,1.04,4.23,1.56,6.49,1.5c4.55,0,9.07,0,13.55,0
						c17.91,0.01,35.18,0.01,51.64,0.02c32.91,0.02,62.54,0.04,87.43,0.06c24.88,0.03,45.02,0.06,58.94,0.08
						c6.95,0.02,12.35,0.04,16.03,0.05c1.83,0.01,3.22,0.02,4.17,0.03C401.61,153.04,402.09,153.06,402.09,153.06
						s-0.48,0.02-1.42,0.03c-0.95,0.01-2.34,0.01-4.17,0.03c-3.67,0.01-9.07,0.03-16.03,0.05c-13.93,0.02-34.06,0.05-58.94,0.08
						c-24.89,0.02-54.52,0.03-87.43,0.06c-16.46,0-33.73,0.01-51.64,0.02c-4.48,0-8.99,0-13.55,0c-2.31,0.07-4.66-0.48-6.73-1.56
						c-2.05-1.11-3.87-2.73-5.1-4.74c-2.59-3.97-2.74-9.37-0.44-13.58c1.17-2.08,2.86-3.9,4.94-5.11c2.05-1.27,4.48-1.87,6.89-1.91
						c75.94,0.03,144.7,0.06,194.48,0.08c12.44,0.01,23.7,0.03,33.59,0.04c1.24,0,2.45,0,3.64,0.01c1.19,0,2.37-0.02,3.52,0.11
						c2.3,0.3,4.44,1.14,6.15,2.42c1.72,1.26,3.09,2.85,3.99,4.58c0.9,1.73,1.37,3.56,1.49,5.31c0.12,1.75-0.11,3.42-0.58,4.9
						c-0.47,1.48-1.19,2.77-1.98,3.85c-1.59,2.19-3.59,3.46-5.24,4.22c-1.69,0.75-3.09,0.95-4.02,1.07
						C402.57,153.06,402.09,153.06,402.09,153.06z"/>
				</g>
			</g>
		</g>
		<g>
			<path class="st4" d="M173.82,142.68l0.5-1.11c0.53,0.39,1.33,0.66,2.09,0.66c0.87,0,1.22-0.29,1.22-0.68
				c0-1.19-3.69-0.37-3.69-2.73c0-1.08,0.87-1.98,2.67-1.98c0.8,0,1.61,0.19,2.2,0.56l-0.45,1.12c-0.59-0.34-1.2-0.5-1.76-0.5
				c-0.87,0-1.21,0.33-1.21,0.73c0,1.17,3.69,0.36,3.69,2.69c0,1.06-0.88,1.97-2.69,1.97C175.39,143.42,174.38,143.12,173.82,142.68
				z"/>
			<path class="st4" d="M184.75,141.27h-3.69c0.14,0.61,0.65,0.98,1.4,0.98c0.52,0,0.89-0.15,1.22-0.47l0.75,0.82
				c-0.45,0.52-1.13,0.79-2.01,0.79c-1.69,0-2.78-1.06-2.78-2.51c0-1.46,1.11-2.51,2.6-2.51c1.43,0,2.54,0.96,2.54,2.53
				C184.78,141,184.76,141.15,184.75,141.27z M181.04,140.44h2.4c-0.1-0.62-0.56-1.02-1.2-1.02
				C181.6,139.43,181.14,139.82,181.04,140.44z"/>
			<path class="st4" d="M189.9,140.52v2.78h-1.32v-0.61c-0.26,0.44-0.77,0.68-1.49,0.68c-1.14,0-1.82-0.63-1.82-1.48
				c0-0.86,0.61-1.46,2.09-1.46h1.12c0-0.61-0.36-0.96-1.12-0.96c-0.52,0-1.05,0.17-1.4,0.45l-0.51-0.99
				c0.53-0.38,1.32-0.59,2.1-0.59C189.04,138.36,189.9,139.05,189.9,140.52z M188.49,141.77v-0.5h-0.97c-0.66,0-0.87,0.25-0.87,0.57
				c0,0.35,0.3,0.59,0.8,0.59C187.92,142.43,188.32,142.21,188.49,141.77z"/>
			<path class="st4" d="M194.21,138.36v1.31c-0.12-0.01-0.21-0.02-0.32-0.02c-0.78,0-1.3,0.43-1.3,1.36v2.3h-1.41v-4.88h1.35v0.64
				C192.88,138.6,193.46,138.36,194.21,138.36z"/>
			<path class="st4" d="M194.65,140.87c0-1.47,1.13-2.51,2.72-2.51c1.02,0,1.83,0.44,2.18,1.24l-1.1,0.59
				c-0.26-0.46-0.65-0.67-1.1-0.67c-0.72,0-1.28,0.5-1.28,1.35c0,0.85,0.56,1.35,1.28,1.35c0.44,0,0.83-0.2,1.1-0.67l1.1,0.6
				c-0.35,0.78-1.16,1.23-2.18,1.23C195.78,143.38,194.65,142.34,194.65,140.87z"/>
			<path class="st4" d="M205.32,140.51v2.79h-1.41v-2.57c0-0.79-0.36-1.15-0.99-1.15c-0.68,0-1.17,0.42-1.17,1.31v2.41h-1.41v-6.73
				h1.41v2.36c0.38-0.38,0.92-0.58,1.55-0.58C204.45,138.36,205.32,139.03,205.32,140.51z"/>
			<path class="st4" d="M208.82,142.49c0-0.53,0.39-0.87,0.88-0.87c0.49,0,0.88,0.34,0.88,0.87c0,0.52-0.39,0.89-0.88,0.89
				C209.21,143.38,208.82,143.01,208.82,142.49z"/>
			<path class="st4" d="M211.2,142.49c0-0.53,0.39-0.87,0.88-0.87c0.49,0,0.88,0.34,0.88,0.87c0,0.52-0.39,0.89-0.88,0.89
				C211.59,143.38,211.2,143.01,211.2,142.49z"/>
			<path class="st4" d="M213.57,142.49c0-0.53,0.39-0.87,0.88-0.87c0.49,0,0.88,0.34,0.88,0.87c0,0.52-0.39,0.89-0.88,0.89
				C213.96,143.38,213.57,143.01,213.57,142.49z"/>
		</g>
		<g>
			<g>
				<path d="M128.07,176.02c0,0.14-9.38,0.26-20.94,0.26c-11.57,0-20.94-0.12-20.94-0.26c0-0.14,9.37-0.26,20.94-0.26
					C118.69,175.76,128.07,175.88,128.07,176.02z"/>
			</g>
		</g>
		<g>
			<rect x="86.19" y="187.99" class="st8" width="43.52" height="43.52"/>
		</g>
		<g>
			<g>
				<path d="M394.15,198.25c0,0.14-54.02,0.26-120.64,0.26c-66.65,0-120.65-0.12-120.65-0.26s54.01-0.26,120.65-0.26
					C340.13,197.99,394.15,198.1,394.15,198.25z"/>
			</g>
		</g>
		<g>
			<g>
				<path d="M218.86,214.63c0,0.14-14.23,0.26-31.79,0.26c-17.56,0-31.79-0.12-31.79-0.26c0-0.14,14.23-0.26,31.79-0.26
					C204.62,214.37,218.86,214.49,218.86,214.63z"/>
			</g>
		</g>
		<g>
			<g>
				<path class="st4" d="M355.59,229.83c0,0.14-44.85,0.26-100.15,0.26c-55.33,0-100.16-0.12-100.16-0.26s44.84-0.26,100.16-0.26
					C310.74,229.56,355.59,229.68,355.59,229.83z"/>
			</g>
		</g>
		<g>
			<g>
				<path d="M128.07,253.97c0,0.14-9.38,0.26-20.94,0.26c-11.57,0-20.94-0.12-20.94-0.26c0-0.14,9.37-0.26,20.94-0.26
					C118.69,253.71,128.07,253.83,128.07,253.97z"/>
			</g>
		</g>
		<g>
			<rect x="86.19" y="265.94" class="st8" width="43.52" height="43.52"/>
		</g>
		<g>
			<g>
				<path d="M408.49,276.19c0,0.14-57.23,0.26-127.81,0.26c-70.6,0-127.82-0.12-127.82-0.26s57.22-0.26,127.82-0.26
					C351.26,275.93,408.49,276.05,408.49,276.19z"/>
			</g>
		</g>
		<g>
			<g>
				<path d="M218.86,292.58c0,0.14-14.23,0.26-31.79,0.26c-17.56,0-31.79-0.12-31.79-0.26c0-0.14,14.23-0.26,31.79-0.26
					C204.62,292.32,218.86,292.44,218.86,292.58z"/>
			</g>
		</g>
		<g>
			<g>
				<path class="st4" d="M390.47,307.77c0,0.14-52.66,0.26-117.59,0.26c-64.96,0-117.61-0.12-117.61-0.26
					c0-0.14,52.64-0.26,117.61-0.26C337.82,307.51,390.47,307.63,390.47,307.77z"/>
			</g>
		</g>
		<g>
			<g>
				<path class="st5" d="M445.53,333.37c0-1.71-0.08-104.79-0.21-267.76l0.21,0.21c-108.19,0.01-243.89,0.03-390.82,0.05h-0.03
					l0.26-0.26c-0.01,95.57-0.02,186.39-0.02,267.76l-0.24-0.24C285.23,333.27,443.41,333.36,445.53,333.37
					c-2.12,0-160.3,0.1-390.85,0.24l-0.24,0v-0.24c-0.01-81.38-0.01-172.19-0.02-267.76v-0.26h0.26h0.03
					c146.93,0.02,282.63,0.04,390.82,0.05h0.21l0,0.21C445.62,228.57,445.53,331.65,445.53,333.37z"/>
			</g>
		</g>
		<g>
			<g>
				<path d="M190.1,85c0,0.14-13.8,0.26-30.82,0.26c-17.03,0-30.82-0.12-30.82-0.26s13.8-0.26,30.82-0.26
					C176.3,84.74,190.1,84.86,190.1,85z"/>
			</g>
		</g>
		<g>
			<rect x="79.76" y="134.22" class="st9" width="54.74" height="16.49"/>
		</g>
		<g>
			<g>
				<path class="st8" d="M231.43,177.41c0,0.14-17.02,0.26-38.01,0.26c-21,0-38.02-0.12-38.02-0.26s17.02-0.26,38.02-0.26
					C214.41,177.15,231.43,177.27,231.43,177.41z"/>
			</g>
		</g>
		<g>
			<g>
				<path class="st8" d="M231.43,253.97c0,0.14-17.02,0.26-38.01,0.26c-21,0-38.02-0.12-38.02-0.26c0-0.14,17.02-0.26,38.02-0.26
					C214.41,253.71,231.43,253.83,231.43,253.97z"/>
			</g>
		</g>
		<g>
			<g>
				<path class="st8" d="M397.06,144.26c-3.5,0-6.35-2.85-6.35-6.35c0-3.5,2.85-6.35,6.35-6.35s6.35,2.85,6.35,6.35
					C403.41,141.41,400.56,144.26,397.06,144.26z M397.06,132.55c-2.95,0-5.35,2.4-5.35,5.35c0,2.95,2.4,5.35,5.35,5.35
					c2.95,0,5.35-2.4,5.35-5.35C402.41,134.95,400.01,132.55,397.06,132.55z"/>
			</g>
			<g>
				<path class="st8" d="M404.87,147.08c-0.13,0-0.25-0.05-0.35-0.14l-4.14-4.11c-0.2-0.19-0.2-0.51,0-0.71
					c0.19-0.19,0.51-0.2,0.71,0l4.14,4.11c0.2,0.19,0.2,0.51,0,0.71C405.12,147.03,404.99,147.08,404.87,147.08z"/>
			</g>
		</g>
		<g>
			<g>
				<path d="M299.88,213.51c0,0.14-16.38,0.26-36.57,0.26c-20.2,0-36.58-0.12-36.58-0.26s16.37-0.26,36.58-0.26
					C283.51,213.25,299.88,213.36,299.88,213.51z"/>
			</g>
		</g>
		<g>
			<g>
				<path d="M347.15,212.38c0,0.14-8.57,0.26-19.13,0.26c-10.57,0-19.13-0.12-19.13-0.26s8.56-0.26,19.13-0.26
					C338.58,212.12,347.15,212.24,347.15,212.38z"/>
			</g>
		</g>
		<g>
			<g>
				<path d="M299.53,292.58c0,0.14-16.38,0.26-36.57,0.26c-20.2,0-36.58-0.12-36.58-0.26c0-0.14,16.37-0.26,36.58-0.26
					C283.16,292.32,299.53,292.44,299.53,292.58z"/>
			</g>
		</g>
	</g>
</g>
<g id="Plant">
	<g>
		<g>
			<path class="st9" d="M343.37,16.96c-24.19,12.53-42.73,34.1-56.07,57.85c-13.34,23.75-21.93,49.81-30.44,75.68l-7.45,133.44
				c28.14-47.87,50.73-104.15,56.83-159.35c-6.24-0.56-12.48-1.11-18.73-1.67c12.56-1.92,23.1-11.01,29.8-21.8
				s10.16-23.23,13.53-35.47c-7.62,1.13-15.23,2.26-22.85,3.4C325.89,57.09,338.86,37.99,343.37,16.96z"/>
		</g>
		<g class="st10">
			<g>
				<path d="M343.37,16.96c-24.19,12.53-42.73,34.1-56.07,57.85c-13.34,23.75-21.93,49.81-30.44,75.68l-7.45,133.44
					c28.14-47.87,50.73-104.15,56.83-159.35c-6.24-0.56-12.48-1.11-18.73-1.67c12.56-1.92,23.1-11.01,29.8-21.8
					s10.16-23.23,13.53-35.47c-7.62,1.13-15.23,2.26-22.85,3.4C325.89,57.09,338.86,37.99,343.37,16.96z"/>
			</g>
		</g>
		<g>
			<path class="st9" d="M245.25,315.19c0,0-61.08-73.11-60.38-142.9h24.67c0,0-26.8-17.62-24.68-27.49
				c2.12-9.87,2.83-47.23,2.83-47.23l22.56,5.64c0,0-16.92-8.46-19.03-21.85c-2.12-13.39,4.93-75.43,4.93-75.43
				s27.49,28.9,35.95,58.51c8.46,29.61,30.67,64.15,24.14,154.39C249.73,309.05,245.25,315.19,245.25,315.19z"/>
		</g>
		<g>
			<path class="st9" d="M276.21,322.09c0,0,66.18-44.08,80.88-100.35l-19.84-5.4c0,0,25.4-8.31,25.86-16.7s8.06-38.59,8.06-38.59
				l-19.37-0.4c0,0,15.45-3.1,20.08-13.41c4.63-10.31,12.54-61.72,12.54-61.72s-28.43,17.22-41.71,39.18
				c-13.28,21.95-38.69,44.87-53.19,118.84C275.03,317.51,276.21,322.09,276.21,322.09z"/>
		</g>
		<g>
			<g>
				<path class="st5" d="M212.84,69.66c0.03-0.01,0.11,0.25,0.24,0.75c0.15,0.59,0.33,1.33,0.55,2.25c0.48,2.1,1.14,5,1.98,8.67
					c1.71,7.53,3.97,18.47,6.56,32.03c5.21,27.11,11.37,64.78,16.23,106.64c4.82,41.87,7.42,79.96,8.53,107.55
					c0.57,13.79,0.87,24.96,0.93,32.68c0.02,3.77,0.04,6.74,0.05,8.89c-0.01,0.94-0.02,1.7-0.03,2.31
					c-0.01,0.52-0.03,0.79-0.06,0.79c-0.03,0-0.06-0.27-0.1-0.79c-0.03-0.61-0.08-1.37-0.13-2.31c-0.08-2.15-0.2-5.12-0.35-8.88
					c-0.24-7.71-0.71-18.87-1.42-32.65c-1.39-27.56-4.16-65.59-8.98-107.42c-4.85-41.82-10.83-79.47-15.76-106.62
					c-2.45-13.58-4.54-24.55-6.07-32.11c-0.72-3.7-1.28-6.61-1.69-8.73c-0.16-0.93-0.3-1.68-0.4-2.28
					C212.84,69.93,212.81,69.66,212.84,69.66z"/>
			</g>
		</g>
		<g>
			<path class="st9" d="M236.78,359.96c0,0-55.9-63.42-73.25-101.76l13.1-5.6c-9.5,1.57-19.23-2.51-26.59-8.71
				c-7.36-6.2-12.77-14.35-18.07-22.38l17.26-2.92c-15.7-4.4-29.52-15.12-37.71-29.21c20.37,3.35,38.79,14.54,53.98,28.52
				c12.3,11.32,22.71,24.47,32.71,37.9c4.88,6.55,9.15,13.53,12.7,20.89C220.29,296.1,236.81,336.67,236.78,359.96z"/>
		</g>
		<g>
			<g>
				<path class="st5" d="M357.97,122.43c0.02,0.01-0.06,0.23-0.24,0.66c-0.23,0.5-0.5,1.11-0.84,1.85
					c-0.83,1.73-1.95,4.08-3.37,7.05c-2.98,6.1-7.2,14.96-12.32,25.96c-10.25,21.99-23.77,52.67-37.14,87.19
					c-13.34,34.54-23.98,66.35-31.19,89.51c-3.61,11.58-6.45,20.98-8.35,27.5c-0.95,3.15-1.7,5.65-2.25,7.48
					c-0.25,0.78-0.45,1.41-0.62,1.94c-0.15,0.43-0.24,0.65-0.26,0.65c-0.03-0.01,0.01-0.24,0.11-0.69c0.13-0.54,0.28-1.18,0.48-1.98
					c0.48-1.86,1.14-4.38,1.97-7.56c1.72-6.57,4.4-16.02,7.88-27.65c6.94-23.27,17.43-55.17,30.79-89.75
					c13.38-34.56,27.08-65.21,37.59-87.1c5.25-10.95,9.63-19.75,12.77-25.76c1.53-2.91,2.74-5.22,3.63-6.93
					c0.39-0.71,0.71-1.3,0.98-1.78C357.82,122.61,357.95,122.42,357.97,122.43z"/>
			</g>
		</g>
		<g>
			<g>
				<path class="st5" d="M241.52,387.14c-0.11,0.01-0.42-1.6-0.89-4.52c-0.45-2.92-1.2-7.14-2.24-12.32
					c-2.07-10.36-5.68-24.54-11.35-39.62c-5.71-15.08-12.37-28.11-17.67-37.25c-2.64-4.57-4.87-8.23-6.46-10.73
					c-1.57-2.5-2.41-3.92-2.32-3.98c0.09-0.06,1.09,1.24,2.82,3.65c1.75,2.39,4.13,5.98,6.9,10.5c5.56,9.04,12.43,22.08,18.18,37.26
					c5.72,15.19,9.18,29.51,10.98,39.97c0.91,5.23,1.49,9.49,1.76,12.44C241.51,385.49,241.62,387.13,241.52,387.14z"/>
			</g>
		</g>
		<g>
			<rect x="192.94" y="372.22" class="st8" width="122.34" height="24.96"/>
		</g>
		<g>
			<polygon class="st8" points="204.59,397.18 217.83,481.12 291.75,481.12 304.09,397.18 			"/>
		</g>
		<g>
			<g>
				<path class="st5" d="M307.77,397.18c0,0.43-23.14,0.78-51.68,0.78c-28.55,0-51.69-0.35-51.69-0.78c0-0.43,23.14-0.78,51.69-0.78
					C284.63,396.4,307.77,396.75,307.77,397.18z"/>
			</g>
		</g>
	</g>
</g>
<g id="Magnifying_Glass" class="st0">
	<path class="st11" d="M343.03,181.02H124.69c-8.06,0-14.59-6.53-14.59-14.59v-7.39c0-8.06,6.53-14.59,14.59-14.59h218.34
		c8.06,0,14.59,6.53,14.59,14.59v7.39C357.62,174.49,351.09,181.02,343.03,181.02z"/>
	<g class="st1">
		<g>
			<g>
				<g>
					<g>
						<g>
							<g>
								<path class="st5" d="M302.49,104.41c-9.32-4.44-17.39-11.73-22.74-21.44c-6.59-11.96-8.13-25.77-4.33-38.89
									c3.8-13.12,12.48-23.98,24.44-30.57c24.69-13.61,55.85-4.59,69.46,20.1l0,0c6.59,11.96,8.13,25.78,4.33,38.89
									s-12.48,23.97-24.44,30.57C334.23,111.33,316.87,111.26,302.49,104.41z M345.1,15.26c-13.42-6.39-29.62-6.46-43.6,1.24
									c-11.16,6.15-19.26,16.28-22.8,28.52c-3.54,12.24-2.11,25.13,4.04,36.29c6.15,11.16,16.28,19.26,28.52,22.8
									c12.24,3.54,25.13,2.11,36.29-4.04c11.16-6.15,19.26-16.28,22.8-28.52c3.54-12.24,2.11-25.13-4.04-36.29
									C361.33,26.21,353.8,19.41,345.1,15.26z"/>
							</g>
						</g>
					</g>
				</g>
				<g>
					<g>
						<g>
							<g>
								<path class="st5" d="M388.76,160.3L388.76,160.3c-2.99,1.84-6.9,0.91-8.74-2.07l-33.44-54.18c-0.32-0.51-0.16-1.19,0.36-1.5
									l7.13-4.4c0.5-0.31,1.16-0.17,1.48,0.32l35.17,52.91C392.71,154.36,391.82,158.41,388.76,160.3z"/>
							</g>
						</g>
					</g>
				</g>
			</g>
			<g>
				<g>
					<g>
						<g>
							<g>
								<path class="st9" d="M303.72,101.83c-9.32-4.44-17.39-11.73-22.74-21.44c-6.59-11.96-8.13-25.77-4.33-38.89
									c3.8-13.12,12.48-23.98,24.44-30.57c24.69-13.61,55.85-4.59,69.46,20.1l0,0c6.59,11.96,8.13,25.78,4.33,38.89
									c-3.8,13.12-12.48,23.97-24.44,30.57C335.46,108.75,318.1,108.68,303.72,101.83z M346.33,12.68
									c-13.42-6.39-29.62-6.46-43.6,1.24c-11.16,6.15-19.26,16.28-22.8,28.52c-3.54,12.24-2.11,25.13,4.04,36.29
									c6.15,11.16,16.28,19.26,28.52,22.8c12.24,3.54,25.13,2.11,36.29-4.04c11.16-6.15,19.26-16.28,22.8-28.52
									c3.54-12.24,2.11-25.13-4.04-36.29C362.55,23.62,355.03,16.83,346.33,12.68z"/>
							</g>
						</g>
					</g>
				</g>
				<g>
					<g>
						<g>
							<g>
								<path class="st9" d="M390.14,159.45l-0.52,0.32c-2.33,1.44-5.39,0.71-6.83-1.62l-35.56-57.62L356.2,95l35.56,57.62
									C393.19,154.95,392.47,158.01,390.14,159.45z"/>
							</g>
						</g>
					</g>
				</g>
			</g>
		</g>
		<g>
			<g>
				<g>
					<g>
						<path class="st4" d="M287.59,43.57c-0.03-0.01,0.07-0.57,0.28-1.58c0.1-0.51,0.24-1.13,0.47-1.82c0.22-0.7,0.43-1.51,0.8-2.37
							c0.17-0.43,0.35-0.88,0.54-1.35c0.19-0.47,0.44-0.93,0.67-1.42c0.45-1,1.06-1.99,1.67-3.05c1.31-2.07,2.93-4.24,4.9-6.28
							c1.99-2.02,4.11-3.7,6.14-5.07c1.04-0.64,2.02-1.28,3.01-1.75c0.49-0.24,0.94-0.51,1.41-0.71c0.46-0.2,0.91-0.39,1.34-0.57
							c0.84-0.39,1.65-0.62,2.34-0.86c0.69-0.25,1.3-0.41,1.81-0.52c1.01-0.24,1.56-0.36,1.57-0.33c0.01,0.03-0.54,0.21-1.52,0.51
							c-0.49,0.14-1.1,0.32-1.77,0.6c-0.68,0.26-1.47,0.52-2.3,0.92c-0.42,0.19-0.86,0.39-1.31,0.59c-0.45,0.21-0.9,0.48-1.38,0.73
							c-0.96,0.48-1.92,1.12-2.95,1.77c-2,1.37-4.08,3.04-6.04,5.03c-1.94,2.02-3.55,4.14-4.86,6.18c-0.62,1.04-1.23,2.02-1.69,2.99
							c-0.24,0.48-0.49,0.94-0.69,1.4c-0.19,0.46-0.38,0.9-0.56,1.33c-0.38,0.83-0.61,1.63-0.86,2.32
							c-0.26,0.68-0.42,1.29-0.55,1.79C287.79,43.03,287.63,43.57,287.59,43.57z"/>
					</g>
				</g>
			</g>
		</g>
	</g>
</g>
<g id="Character" class="st0">
	<g class="st1">
		<g>
			<g>
				<g>
					<g>
						<g>
							<g>
								<g>
									<g>
										<g>
											<g>
												<g>
													<g>
														<g>
															<path class="st9" d="M280.98,469.62v20.77l-39.92-0.2c0.29-4.21,22.2-12.61,22.2-12.61l-0.44-7.95H280.98z"/>
														</g>
													</g>
												</g>
											</g>
										</g>
									</g>
								</g>
							</g>
						</g>
					</g>
					<g class="st12">
						<g>
							<g>
								<g>
									<g>
										<g>
											<g>
												<g>
													<g>
														<g>
															<g>
																<path class="st3" d="M274.53,475.7c0.77,0.25,1.28,1.21,1.09,2.07c-0.19,0.86-1.07,1.45-1.84,1.22
																	c-0.77-0.23-1.42-1.37-1.15-2.2c0.28-0.83,1.35-1.47,2.04-1.04"/>
															</g>
														</g>
													</g>
												</g>
											</g>
										</g>
									</g>
								</g>
							</g>
						</g>
					</g>
					<g>
						<g>
							<g>
								<g>
									<g>
										<g>
											<g>
												<g>
													<g>
														<g>
															<path class="st5" d="M280.98,490.39v-3.32l-38.12,0.47c0,0-1.99,1.25-1.81,2.64L280.98,490.39z"/>
														</g>
													</g>
												</g>
											</g>
										</g>
									</g>
								</g>
							</g>
						</g>
					</g>
					<g>
						<g>
							<g>
								<g>
									<g>
										<g>
											<g>
												<g>
													<g>
														<g>
															<g>
																<path class="st5" d="M263.26,477.98c0,0.22,0.97,0.33,1.92,1.04c0.96,0.68,1.44,1.62,1.62,1.54
																	c0.18-0.04-0.09-1.33-1.25-2.17C264.4,477.54,263.22,477.78,263.26,477.98z"/>
															</g>
														</g>
													</g>
												</g>
											</g>
										</g>
									</g>
								</g>
							</g>
						</g>
					</g>
					<g>
						<g>
							<g>
								<g>
									<g>
										<g>
											<g>
												<g>
													<g>
														<g>
															<g>
																<path class="st5" d="M258.03,479.9c-0.05,0.21,0.79,0.59,1.43,1.51c0.67,0.9,0.82,1.89,1.02,1.88
																	c0.18,0.04,0.33-1.22-0.49-2.35C259.18,479.8,258.04,479.7,258.03,479.9z"/>
															</g>
														</g>
													</g>
												</g>
											</g>
										</g>
									</g>
								</g>
							</g>
						</g>
					</g>
					<g>
						<g>
							<g>
								<g>
									<g>
										<g>
											<g>
												<g>
													<g>
														<g>
															<g>
																<path class="st5" d="M255.68,485.19c0.18,0.05,0.46-1.02-0.02-2.21c-0.47-1.19-1.38-1.67-1.47-1.49
																	c-0.11,0.18,0.47,0.82,0.85,1.8C255.44,484.26,255.48,485.17,255.68,485.19z"/>
															</g>
														</g>
													</g>
												</g>
											</g>
										</g>
									</g>
								</g>
							</g>
						</g>
					</g>
					<g>
						<g>
							<g>
								<g>
									<g>
										<g>
											<g>
												<g>
													<g>
														<g>
															<g>
																<path class="st5" d="M263.65,472.07c0.08,0.2,0.97-0.09,2.07,0.01c1.1,0.08,1.94,0.5,2.05,0.31
																	c0.11-0.15-0.71-0.96-2-1.06C264.48,471.23,263.56,471.9,263.65,472.07z"/>
															</g>
														</g>
													</g>
												</g>
											</g>
										</g>
									</g>
								</g>
							</g>
						</g>
					</g>
				</g>
			</g>
		</g>
		<g>
			<g>
				<g>
					<g>
						<path class="st5" d="M263.43,478.91c-0.03,0-0.13-0.44-0.09-1.27c0.06-0.81,0.29-2.03,1.06-3.27
							c0.39-0.61,0.89-1.22,1.56-1.72c0.32-0.24,0.83-0.5,1.35-0.25c0.48,0.24,0.76,0.81,0.79,1.37c-0.05,2.14-1.51,4.11-3.51,4.86
							c-2.05,0.75-4.21-0.18-5.39-1.68c-0.29-0.38-0.57-0.77-0.72-1.28c-0.07-0.25-0.1-0.54-0.01-0.83c0.09-0.28,0.3-0.51,0.54-0.6
							c0.48-0.17,0.89-0.02,1.24,0.13c0.35,0.17,0.64,0.36,0.93,0.56c1.13,0.79,1.86,1.71,2.28,2.37c0.43,0.67,0.58,1.1,0.55,1.11
							c-0.09,0.1-0.83-1.64-3.04-3.1c-0.53-0.32-1.23-0.78-1.8-0.58c-0.25,0.11-0.35,0.41-0.23,0.78c0.1,0.36,0.36,0.72,0.63,1.06
							c1.08,1.33,3.03,2.14,4.83,1.47c1.77-0.63,3.11-2.51,3.16-4.22c-0.01-0.4-0.2-0.76-0.47-0.9c-0.26-0.14-0.59-0.02-0.89,0.18
							c-0.61,0.43-1.11,0.99-1.49,1.54c-0.76,1.13-1.04,2.27-1.16,3.04C263.45,478.45,263.48,478.91,263.43,478.91z"/>
					</g>
				</g>
			</g>
		</g>
		<g>
			<g>
				<g>
					<g>
						<g>
							<g>
								<g>
									<polygon class="st9" points="295.57,472.63 294.9,477.98 295.35,490.03 310.32,490.41 310.85,477.98 309.15,470.59 
																			"/>
								</g>
							</g>
						</g>
					</g>
				</g>
			</g>
		</g>
		<g>
			<g>
				<g>
					<g>
						<g>
							<g>
								<g>
									<g>
										<path class="st5" d="M302.75,489.12c0.09,0-0.12-3.68-0.48-8.23c-0.36-4.55-0.72-8.25-0.81-8.25
											c-0.09,0,0.12,3.68,0.48,8.24C302.3,485.42,302.66,489.12,302.75,489.12z"/>
									</g>
								</g>
							</g>
						</g>
					</g>
				</g>
			</g>
		</g>
		<g>
			<g>
				<g>
					<g>
						<g>
							<g>
								<g>
									<polygon class="st5" points="295.29,488.02 310.41,488.21 310.41,490.41 295.28,490.39 									"/>
								</g>
							</g>
						</g>
					</g>
				</g>
			</g>
		</g>
		<g>
			<g>
				<g>
					<g>
						<g>
							<g>
								<g>
									<g>
										<path class="st5" d="M310.37,481.09c0.02-0.02-0.11-0.25-0.38-0.64c-0.28-0.39-0.72-0.92-1.33-1.5
											c-0.62-0.58-1.42-1.21-2.42-1.7c-0.99-0.5-2.2-0.86-3.49-0.85c-2.59,0-4.77,1.33-5.84,2.66c-0.56,0.65-0.9,1.27-1.1,1.71
											c-0.19,0.44-0.26,0.7-0.24,0.71c0.08,0.05,0.44-0.98,1.57-2.19c1.09-1.21,3.15-2.41,5.61-2.41
											c2.45-0.01,4.47,1.28,5.69,2.33C309.7,480.29,310.31,481.15,310.37,481.09z"/>
									</g>
								</g>
							</g>
						</g>
					</g>
				</g>
			</g>
		</g>
		<g>
			<g>
				<g>
					<g>
						<g>
							<g>
								<g>
									<path class="st13" d="M302.81,136.28l0.16,54.29l-22.2,1.11l-0.64-13.2c0,0-7.89,1.64-9.92-6.04
										c-1.3-4.91-0.98-42.83-0.98-42.83L302.81,136.28z"/>
								</g>
							</g>
						</g>
					</g>
				</g>
			</g>
			<g>
				<g>
					<g>
						<g>
							<g>
								<g>
									<path class="st5" d="M266.31,133.42c3.5,1.05,4.26,7.05,4.26,7.05l5.49,12.71c2.79-2.29,6.55-2.16,7.26,2.99
										c0.51,3.72-3.9,4.47-3.9,4.47c2.57,4.58,4.31,8.29,8.05,12.65c4.05,4.72,6.31,5.2,10.7,5.27H303c0,0,2.37-8.07,6.76-28.24
										c4.87-22.38-20.36-19.5-25.04-25.21C277.1,115.8,255.29,130.11,266.31,133.42z"/>
								</g>
							</g>
						</g>
					</g>
				</g>
			</g>
			<g>
				<path class="st5" d="M260.15,128.55c0.36-2.38,2.54-4.38,4.83-4.22c-0.82-1.21-0.43-3.03,0.63-4.02c1.06-0.99,2.6-1.25,4-1.02
					c1.4,0.22,2.7,0.87,3.98,1.5c0.23-1.14,1.6-3.02,2.57-3.57c1.95-1.11,3.18-1.11,4.28-1.11c6.81,0,10.4,4.9,14.06,9.88
					c0.63,0.86,1.25,1.81,2.21,2.2c0.65,0.26,1.36,0.23,2.06,0.24c5.19,0.11,10.21,3.38,12.6,8.22c2.39,4.84,4.17,16.03-2.01,22.96
					l-3.72,8.71l-35.59-29.58c-0.25,0.14-2.48,1.28-4.2,0.33c-4.26-2.35-2.47-6.28-2.47-6.28
					C263.04,132.61,259.79,130.94,260.15,128.55z"/>
			</g>
			<g>
				<g>
					<g>
						<g>
							<path class="st9" d="M293.09,157.65c-0.14-0.02-0.36,1.87,0.13,4.12c0.48,2.26,1.45,3.86,1.57,3.78
								c0.15-0.08-0.56-1.74-1.02-3.91C293.29,159.47,293.26,157.65,293.09,157.65z"/>
						</g>
					</g>
				</g>
			</g>
			<g>
				<g>
					<g>
						<g>
							<path class="st9" d="M290.4,154.98c-0.15,0.01-0.18,1.8,0.21,3.97c0.38,2.17,1.03,3.83,1.17,3.78
								c0.15-0.05-0.24-1.76-0.62-3.89C290.78,156.72,290.57,154.97,290.4,154.98z"/>
						</g>
					</g>
				</g>
			</g>
			<g>
				<g>
					<g>
						<g>
							<path class="st9" d="M282.71,146.02c-0.05,0.08,0.58,0.56,1.37,1.54c0.81,0.97,1.72,2.49,2.39,4.33
								c0.67,1.84,1.04,3.61,1.33,4.88c0.28,1.28,0.47,2.07,0.55,2.05c0.07-0.01,0.02-0.83-0.16-2.13c-0.19-1.3-0.5-3.11-1.19-5.02
								c-0.69-1.91-1.71-3.47-2.63-4.4C283.47,146.33,282.75,145.97,282.71,146.02z"/>
						</g>
					</g>
				</g>
			</g>
			<g>
				<g>
					<g>
						<g>
							<path class="st9" d="M279.61,139.92c-0.07-0.02-0.29,0.53-0.43,1.47c-0.14,0.94-0.14,2.28,0.19,3.71
								c0.34,1.42,0.95,2.61,1.5,3.36c0.55,0.76,0.99,1.13,1.04,1.08c0.14-0.11-1.36-1.86-1.99-4.59
								C279.24,142.24,279.78,139.95,279.61,139.92z"/>
						</g>
					</g>
				</g>
			</g>
			<g>
				<g>
					<g>
						<g>
							<path class="st9" d="M306.1,153.48c0.08,0.14,0.76-0.1,1.52-0.55c0.76-0.45,1.32-0.92,1.24-1.07
								c-0.08-0.14-0.76,0.1-1.52,0.55C306.59,152.86,306.03,153.34,306.1,153.48z"/>
						</g>
					</g>
				</g>
			</g>
			<g>
				<g>
					<g>
						<g>
							<path class="st9" d="M295.38,147.69c-0.15,0.02-0.06,1.17,0.63,2.36c0.68,1.19,1.61,1.81,1.7,1.69
								c0.11-0.13-0.59-0.9-1.22-1.99C295.86,148.65,295.54,147.65,295.38,147.69z"/>
						</g>
					</g>
				</g>
			</g>
			<g>
				<g>
					<g>
						<g>
							<path class="st9" d="M292.08,145.83c-0.14,0.03,0.09,1.41,0.99,2.82c0.89,1.42,2.01,2.18,2.1,2.05
								c0.1-0.13-0.79-1.05-1.63-2.38C292.69,147,292.24,145.78,292.08,145.83z"/>
						</g>
					</g>
				</g>
			</g>
			<g>
				<g>
					<g>
						<g>
							<path class="st9" d="M275.68,123.09c0.04,0.05,0.42-0.33,1.22-0.81c0.8-0.46,2.08-0.97,3.72-1.01
								c1.62-0.05,3.62,0.35,5.46,1.54c1.84,1.18,3.47,3.11,4.65,5.43c0.86,1.69,1.46,3.44,1.89,5.09l0.09,0.34l0.3-0.16
								c1.65-0.91,3.39-1.31,4.95-1.33c1.57-0.05,2.94,0.26,4.03,0.64c2.19,0.79,3.24,1.82,3.29,1.73c0.02-0.02-0.23-0.28-0.74-0.69
								c-0.52-0.4-1.33-0.93-2.44-1.37c-1.11-0.44-2.52-0.8-4.15-0.79c-1.62-0.01-3.46,0.37-5.2,1.31l0.39,0.18
								c-0.42-1.69-1.02-3.49-1.91-5.23c-1.22-2.39-2.92-4.4-4.88-5.62c-1.96-1.22-4.05-1.6-5.74-1.49
								c-1.71,0.1-3.02,0.69-3.81,1.23c-0.39,0.29-0.68,0.52-0.85,0.71C275.76,122.98,275.67,123.08,275.68,123.09z"/>
						</g>
					</g>
				</g>
			</g>
			<g>
				<g>
					<g>
						<g>
							<path class="st9" d="M264.01,126.05c0.04-0.01-0.62-0.17-1.27,0.61c-0.3,0.38-0.58,0.97-0.51,1.7
								c0.07,0.73,0.55,1.48,1.29,1.93c0.73,0.47,1.73,0.63,2.7,0.39c0.97-0.22,1.91-0.76,2.78-1.42c0.88-0.65,1.73-1.4,2.72-1.96
								c0.99-0.56,2.1-0.97,3.28-1.21c2.36-0.46,4.71-0.18,6.69,0.48c1.99,0.67,3.65,1.68,4.95,2.64c2.59,1.96,3.87,3.59,3.95,3.51
								c0.03-0.02-0.27-0.45-0.88-1.15c-0.61-0.69-1.54-1.67-2.84-2.7c-1.29-1.02-2.97-2.1-5.02-2.82
								c-2.05-0.72-4.48-1.03-6.96-0.54c-1.23,0.25-2.4,0.68-3.44,1.28c-1.05,0.6-1.91,1.38-2.76,2.02
								c-0.84,0.65-1.71,1.16-2.59,1.38c-0.87,0.23-1.74,0.12-2.4-0.27c-0.66-0.37-1.09-1.01-1.18-1.61
								c-0.08-0.61,0.13-1.16,0.37-1.52C263.44,126.05,264.04,126.11,264.01,126.05z"/>
						</g>
					</g>
				</g>
			</g>
		</g>
		<g>
			<path class="st13" d="M160.57,167.7c0.84-0.78,12.14,4.2,12.14,4.2s8.44,6.94,11.91,11.04l2.14,1.87l32.08,26.17l39.47-17.22
				l8.56,23.1c0,0-44.31,18.5-51.06,15.33c-7.34-3.44-34.65-33.43-34.71-33.53c0,0,0,0,0,0l-3.94-3.99c0,0-2.09-0.04-3.67-0.14
				c-1.58-0.1-6.21-3.33-6.21-3.33s-0.67-1.26-0.9-2.83c-0.23-1.57,0.86-2.06,0.86-2.06s-0.26-1.02-0.08-2.34
				c0.18-1.32,1.86-2.85,1.86-2.85s-0.66-0.57-1.05-2.09c-0.39-1.52,1.49-2.96,1.49-2.96s-6.56-4.68-8.16-5.5
				C159.72,169.75,159.73,168.48,160.57,167.7z"/>
		</g>
		<g>
			<g>
				<path class="st5" d="M252.52,404.23c-0.13-1.52-0.2-2.69-0.2-3.42l-4.46-74.63c0,0,3.75-21.79,5.52-27.58l15.93-6.47l21.22,8.67
					c0.14-1.8,0.23-2.9,0.23-2.9l31.26,11.33c0,0,0.81,22.37,0,29.18c-0.26,2.19-1.08,7.84-2.07,14.5h0c0,0-1.01,14.47-1.21,15.28
					c-0.76,2.95-0.93,10.18-0.93,17.42c0,9.2-0.48,20.15-1.02,25.36c-0.55,5.21-0.81,62.44-0.81,62.44H292.9l-2.96-91.17
					c-0.5-9.77-1.24-24.71-1.72-35.52l-5.42,33.66c0,1.23-3.3,20.48-3.3,20.48s1.21,9.03,1.41,18.26
					c0.38,16.97,2.28,54.28,2.28,54.28h-22.58l0,0C260.62,473.41,253.84,419.52,252.52,404.23L252.52,404.23L252.52,404.23z"/>
			</g>
			<g>
				<path class="st9" d="M248.63,321.71c0.03,0.05,0.85-0.34,2.08-1.16c1.23-0.82,2.86-2.08,4.46-3.71c1.6-1.63,2.86-3.29,3.68-4.56
					c0.82-1.26,1.23-2.11,1.18-2.14c-0.06-0.04-0.57,0.73-1.46,1.93c-0.88,1.2-2.17,2.8-3.74,4.4c-1.58,1.6-3.15,2.89-4.32,3.78
					C249.35,321.13,248.59,321.64,248.63,321.71z"/>
			</g>
			<g>
				<path class="st9" d="M288.9,335.27c0.03,0.02,0.19-0.25,0.44-0.74c0.26-0.49,0.6-1.23,0.97-2.15c0.75-1.85,1.59-4.51,2.1-7.55
					c0.5-3.04,0.57-5.84,0.46-7.85c-0.05-1.01-0.13-1.82-0.22-2.37c-0.08-0.56-0.14-0.86-0.18-0.86c-0.08,0.01,0.03,1.24,0.05,3.24
					c0.02,1.99-0.1,4.75-0.59,7.75c-0.5,2.99-1.28,5.63-1.94,7.5C289.33,334.11,288.82,335.23,288.9,335.27z"/>
			</g>
			<g>
				<g>
					<path class="st9" d="M285.54,363.37c0.03,0.01,0.14-0.46,0.3-1.3c0.17-0.95,0.38-2.15,0.62-3.57c0.5-3.13,1.16-7.25,1.89-11.81
						c1.28-8.37,2.14-14.07,2.55-16.72c-0.11-0.04-0.55,1.83-1.09,4.83c-0.55,3.01-1.24,7.19-1.96,11.8
						c-0.72,4.62-1.33,8.8-1.75,11.84c-0.19,1.44-0.34,2.64-0.46,3.6C285.54,362.89,285.5,363.36,285.54,363.37z"/>
				</g>
			</g>
		</g>
		<g>
			<g>
				<path class="st13" d="M339.98,238.89c0,0,3.05,22.49,3.62,30.38c0.34,4.74-4.25,11.04-7.76,11.51
					c-3.56,0.47-15.33,1.2-15.33,1.2l-0.98-14.11l0.31-2.81l3.67-0.73l-1.11-22.37L339.98,238.89z"/>
			</g>
			<g>
				<g>
					<path class="st14" d="M322.88,242.71c-0.04,0-0.08,0.43-0.14,1.22c-0.06,0.79-0.1,1.93-0.13,3.34c-0.06,2.83,0,6.73,0.23,11.04
						c0.23,4.31,0.56,8.19,0.82,11c0.13,1.4,0.25,2.54,0.35,3.32c0.09,0.78,0.16,1.22,0.2,1.21c0.04,0,0.03-0.44,0-1.23
						c-0.05-0.9-0.11-2.02-0.19-3.34c-0.18-2.93-0.41-6.76-0.67-11c-0.23-4.3-0.35-8.19-0.38-11.01c-0.01-1.32-0.02-2.44-0.03-3.34
						C322.93,243.15,322.91,242.71,322.88,242.71z"/>
				</g>
			</g>
		</g>
		<g class="st10">
			<g>
				<path d="M321.72,309.65c-6.01,2.34-12.59,2.54-18.97,1.95c-6.38-0.59-12.68-1.92-19.06-2.56c-9.64-0.96-19.43-0.29-28.88,1.96
					c-0.67,0.16-1.36,0.33-2.04,0.2c-0.68-0.13-1.34-0.63-1.44-1.34c-0.17-1.12,1-1.9,2-2.34c21.71-9.58,47.29-8.98,68.57,1.61"/>
			</g>
		</g>
		<g>
			<g>
				<path class="st8" d="M229.77,203.98l33.86-17.68c8.9-1.09,16.09-0.74,16.09-0.74h22.41c0,0,27.16,8.4,31.64,16.15l11.64,36.6
					l-23.01,3.65l0,0l-2.87,26.3c0,0,2.86,30.45,2.86,34.87c0,4.42-0.36,6.11-0.36,6.11s-46.04-7.34-57.37-3.47
					c-11.34,3.87-14.4,3.47-14.4,3.47s0.95-12.64,1.79-19.97l2.63-36.69l1.94-28.02l-21.31,6.84L229.77,203.98z"/>
			</g>
			<g>
				<path class="st5" d="M322.61,242.24c0.08,0.01,0.31-1.51,0.82-3.95c0.51-2.43,1.36-5.77,2.66-9.34c1.3-3.57,2.8-6.69,3.95-8.92
					c0.55-1.03,1.01-1.91,1.39-2.62c0.33-0.62,0.5-0.97,0.47-0.99c-0.03-0.02-0.26,0.3-0.65,0.89c-0.39,0.59-0.92,1.46-1.54,2.56
					c-1.24,2.19-2.8,5.31-4.11,8.91c-1.31,3.6-2.11,6.98-2.53,9.44c-0.21,1.23-0.35,2.23-0.41,2.93
					C322.59,241.85,322.57,242.24,322.61,242.24z"/>
			</g>
			<g>
				<path class="st5" d="M279.18,252.63c-0.02,0.01,0.03,0.17,0.12,0.48c0.12,0.37,0.26,0.81,0.43,1.35
					c0.19,0.59,0.43,1.3,0.75,2.12c0.31,0.82,0.65,1.76,1.08,2.77c0.83,2.04,1.93,4.42,3.26,6.99c1.36,2.56,2.95,5.32,4.8,8.1
					c1.86,2.77,3.78,5.29,5.61,7.5c1.85,2.2,3.6,4.1,5.15,5.61c0.75,0.78,1.48,1.43,2.11,2.02c0.62,0.59,1.18,1.07,1.64,1.46
					c0.43,0.36,0.78,0.65,1.06,0.89c0.25,0.2,0.38,0.3,0.39,0.28c0.01-0.01-0.1-0.14-0.33-0.36c-0.27-0.26-0.6-0.58-1-0.96
					c-0.44-0.41-0.98-0.91-1.58-1.52c-0.61-0.61-1.31-1.27-2.05-2.06c-1.51-1.54-3.22-3.46-5.05-5.66c-1.8-2.22-3.71-4.74-5.55-7.49
					c-1.83-2.76-3.43-5.5-4.8-8.04c-1.35-2.55-2.48-4.9-3.34-6.91c-0.46-0.99-0.81-1.92-1.15-2.73c-0.34-0.8-0.61-1.5-0.82-2.08
					c-0.21-0.53-0.38-0.96-0.52-1.32C279.27,252.78,279.2,252.63,279.18,252.63z"/>
			</g>
			<g>
				<g>
					<path class="st5" d="M263.54,188.72c-0.1,0.05,1.27,1.47,1.78,4.46c0.26,1.47,0.27,3.28-0.03,5.25
						c-0.29,1.97-0.86,4.1-1.43,6.34c-1.17,4.48-2.41,8.47-3.34,11.35c-0.45,1.36-0.82,2.5-1.12,3.41c-0.27,0.8-0.4,1.26-0.37,1.27
						c0.03,0.01,0.23-0.41,0.55-1.19c0.32-0.78,0.76-1.93,1.28-3.35c1.03-2.85,2.32-6.85,3.5-11.34c0.58-2.24,1.13-4.39,1.4-6.41
						c0.28-2.01,0.24-3.88-0.08-5.4c-0.31-1.52-0.85-2.66-1.31-3.37C263.9,189.02,263.56,188.7,263.54,188.72z"/>
				</g>
			</g>
		</g>
		<g>
			<g>
				<path class="st3" d="M327.43,227.25c-0.03,0.04,0.57,0.68,1.8,1.29c1.22,0.61,3.13,1.11,5.21,0.78
					c2.08-0.33,3.76-1.41,4.75-2.37c1.01-0.97,1.4-1.76,1.36-1.79c-0.07-0.05-0.56,0.65-1.59,1.51c-1.01,0.86-2.63,1.82-4.6,2.14
					c-1.97,0.31-3.79-0.1-5-0.61C328.15,227.7,327.48,227.18,327.43,227.25z"/>
			</g>
		</g>
		<g>
			<g>
				<path class="st3" d="M262.53,210.74c-0.02,0.01,0.08,0.27,0.29,0.77c0.2,0.5,0.53,1.22,1,2.12c0.95,1.79,2.49,4.34,5.03,6.91
					c2.52,2.54,6.16,5.07,10.75,6.13c2.28,0.53,4.76,0.72,7.29,0.33c2.53-0.36,5.03-1.39,7.37-2.75c4.68-2.74,8.63-6.21,12.96-7.87
					c4.29-1.73,8.61-1.53,11.95-0.69c3.38,0.85,5.85,2.4,7.43,3.57c1.56,1.22,2.3,2.06,2.34,2.01c0,0-0.68-0.9-2.22-2.18
					c-1.55-1.24-4.03-2.85-7.46-3.77c-3.39-0.9-7.79-1.15-12.2,0.6c-4.43,1.67-8.42,5.16-13.04,7.86c-2.32,1.34-4.74,2.34-7.21,2.7
					c-2.46,0.39-4.89,0.22-7.12-0.29c-4.49-1.02-8.08-3.46-10.6-5.93c-2.54-2.5-4.11-4.99-5.11-6.74c-0.49-0.88-0.84-1.59-1.08-2.07
					C262.68,210.98,262.55,210.73,262.53,210.74z"/>
			</g>
		</g>
		<g>
			<g>
				<path class="st3" d="M241.34,197.91c-0.03-0.01-0.2,0.39-0.44,1.15c-0.23,0.76-0.47,1.9-0.55,3.34c-0.07,1.43,0.03,3.17,0.53,5
					c0.48,1.83,1.35,3.77,2.68,5.48c1.33,1.72,2.95,2.96,4.25,4.21c1.33,1.23,2.33,2.54,2.88,3.81c0.56,1.26,0.69,2.41,0.63,3.18
					c-0.06,0.78-0.21,1.19-0.17,1.21c0.02,0.01,0.06-0.09,0.14-0.29c0.08-0.2,0.17-0.5,0.22-0.9c0.12-0.8,0.04-2.02-0.5-3.35
					c-0.53-1.35-1.56-2.74-2.89-4.01c-1.31-1.3-2.9-2.53-4.17-4.19c-2.59-3.33-3.32-7.37-3.24-10.14
					C240.76,199.6,241.45,197.94,241.34,197.91z"/>
			</g>
		</g>
		<g>
			<g>
				<path class="st3" d="M296.4,282.22c-0.01,0.03,0.34,0.17,0.99,0.36c0.65,0.19,1.6,0.45,2.81,0.63c1.2,0.15,2.7,0.27,4.28-0.26
					c0.78-0.26,1.57-0.71,2.24-1.32c0.67-0.62,1.24-1.38,1.83-2.1c0.59-0.73,1.22-1.36,1.92-1.85c0.7-0.49,1.45-0.84,2.19-1.1
					c1.48-0.51,2.92-0.55,4.09-0.41c1.18,0.14,2.09,0.5,2.69,0.8c0.61,0.29,0.92,0.5,0.95,0.46c0.01-0.02-0.27-0.29-0.86-0.64
					c-0.59-0.36-1.51-0.78-2.73-0.98c-1.21-0.19-2.71-0.19-4.27,0.32c-0.78,0.25-1.57,0.62-2.32,1.13c-0.74,0.52-1.43,1.2-2.02,1.94
					c-0.6,0.74-1.15,1.47-1.78,2.06c-0.63,0.58-1.34,1-2.07,1.25c-1.47,0.52-2.92,0.46-4.09,0.35
					C297.87,282.56,296.42,282.12,296.4,282.22z"/>
			</g>
		</g>
		<g>
			<g>
				<path class="st3" d="M252.57,280.08c-0.01,0.01,0.09,0.11,0.3,0.27c0.21,0.15,0.51,0.42,0.94,0.67
					c0.84,0.55,2.14,1.22,3.85,1.69c1.71,0.44,3.85,0.73,6.19,0.38c2.33-0.3,4.84-1.28,7.03-2.96c2.19-1.69,3.91-3.68,5.62-5.3
					c1.69-1.65,3.4-2.89,4.99-3.61c1.58-0.74,3-0.93,3.96-0.92c0.97,0.02,1.5,0.17,1.51,0.12c0-0.02-0.12-0.06-0.38-0.13
					c-0.25-0.08-0.63-0.15-1.13-0.19c-0.99-0.08-2.46,0.06-4.11,0.78c-1.65,0.69-3.44,1.94-5.16,3.59c-1.74,1.62-3.48,3.6-5.61,5.24
					c-2.13,1.63-4.54,2.59-6.8,2.9c-2.26,0.37-4.35,0.13-6.04-0.26c-1.69-0.42-2.99-1.02-3.84-1.51
					C253.04,280.37,252.59,280.04,252.57,280.08z"/>
			</g>
		</g>
	</g>
</g>
</svg>
