<svg xmlns="http://www.w3.org/2000/svg" viewBox="0 0 431.3 90.41"><defs><style>.cls-1,.cls-2{fill:#fff;}.cls-1{stroke:#fff;stroke-miterlimit:10;}</style></defs><g id="Capa_1" data-name="Capa 1"><path class="cls-1" d="M170.61,145c-.9,4-3,7-7,8.17a23.06,23.06,0,0,1-15.67-.56,8.35,8.35,0,0,1-5.36-7.72,31.14,31.14,0,0,1,0-5.11c.42-4.23,2.49-7.28,6.66-8.68,3.44-1.16,6.9-2.3,10.32-3.52s4.64-3.18,4.36-6.41c-.24-2.83-1.89-4.64-5.2-5.21-4.53-.77-8.53-.26-10.07,5.53h-3.06c-3.22,0-3.51-.28-3-3.47a8.29,8.29,0,0,1,6.17-6.84,25.14,25.14,0,0,1,14.58-.24c4.25,1.17,6.23,4.3,7.33,8.24Zm-6.73-12.68c-1.94.77-3.49,1.41-5.06,2a69.44,69.44,0,0,0-6.53,2.53c-3,1.49-4,4.34-3.1,7.65q1.06,3.92,5.89,4.07c1,0,1.95,0,2.92,0,3.41-.16,5.61-1.95,5.83-5.29C164.07,139.63,163.88,136,163.88,132.28Z" transform="translate(-37.6 -93.54)"/><path class="cls-1" d="M38.1,118.66c1.19-3.68,3.06-6.7,7.15-7.74a25.6,25.6,0,0,1,14.1,0c4.59,1.42,6.85,4.61,6.86,9.4,0,7.37-.2,14.75.06,22.11.26,7.12-3.24,10.18-9.15,11.26a23,23,0,0,1-12.21-.7c-3.3-1.21-5.75-3.26-6.26-7A4,4,0,0,0,38.1,145v-5.35c.17-.27.45-.53.49-.82.64-4.36,3.31-6.77,7.4-8,3.24-1,6.41-2.16,9.6-3.3,2.08-.75,3.73-2,4.07-4.35.49-3.51-.86-6-3.83-7-3.94-1.33-9-.43-10,2.36s-2.86,3.15-5.31,2.93a17.75,17.75,0,0,0-2.41.11ZM59.72,132.5c-2.72,1-5.15,1.81-7.55,2.73a25.78,25.78,0,0,0-4.64,2.06A5.69,5.69,0,0,0,45,143.17c.33,2.66,1.59,4.73,4.36,5.13a20.92,20.92,0,0,0,6.27-.07,4.6,4.6,0,0,0,4.12-4.7C59.81,139.9,59.72,136.26,59.72,132.5Z" transform="translate(-37.6 -93.54)"/><path class="cls-1" d="M158.43,183.45,153.76,174l-.65.16c-.34,2-.65,4-1,6-.55,3.08-.73,3.17-4.24,2.33q1.72-9.63,3.44-19.3l.67-.1,7.11,13.12,7.17-13.1.62.07c.54,3,1.1,6.08,1.63,9.13.41,2.39.85,4.77,1.17,7.17.17,1.27,1.34,3-1.11,3.41s-2.5-1.3-2.7-3c-.23-1.91-.63-3.79-1-5.68l-.66-.17q-2.42,4.69-4.85,9.37Z" transform="translate(-37.6 -93.54)"/><path class="cls-1" d="M95.59,183.45l9.13-20.23.78,0q4.55,10.13,9.08,20.25h-3.89c-.74-1.48-.9-3.55-3.42-3.16-2.86.43-6.67-1.53-7.79,3.16Zm12-6.84-2.55-5.43-2.4,5.43Z" transform="translate(-37.6 -93.54)"/><path class="cls-1" d="M127.25,183.45l9.3-20.18c.43.2.65.23.7.34q4.51,9.91,9,19.84h-3.9c-.55-1-1-2.79-1.69-2.9a24.16,24.16,0,0,0-7.4,0c-.84.14-1.41,1.91-2.11,2.94Zm12.17-6.85-2.61-5.51-2.28,5.51Z" transform="translate(-37.6 -93.54)"/><path class="cls-1" d="M82.43,183.45V164.13c3.69-1.18,4.2-.84,4.21,2.46,0,3.56.08,7.13,0,10.7-.06,1.75.66,2.34,2.26,2.23.32,0,.65,0,1,0,3.93,0,3.93,0,4.29,3.92Z" transform="translate(-37.6 -93.54)"/><path class="cls-1" d="M119,183.45c0-4.45,0-8.91.13-13.36.07-2.13-.49-3.27-2.84-2.89a9.47,9.47,0,0,1-1.83-.11v-3.32h12.95v3.16a4.6,4.6,0,0,1-1,.26c-3.53.2-3.54.19-3.53,3.62q0,6.31,0,12.64Z" transform="translate(-37.6 -93.54)"/><path class="cls-1" d="M92.52,110.23V113c0,9.25.26,18.5-.09,27.74-.29,7.69,4.84,8.36,9.8,7.65,3.73-.54,5.21-2.57,5.21-6.42q0-14.48,0-28.95v-2.79H114v3.43c0,9.81-.21,19.63.09,29.44.21,6.94-3.68,10-9.1,10.78a36.54,36.54,0,0,1-11.33-.36c-5.11-.9-7.65-4.5-7.66-9.72q0-15.57,0-31.15v-2.38Z" transform="translate(-37.6 -93.54)"/><path class="cls-1" d="M72.85,94h6.39c.05.93.13,1.79.13,2.65,0,18.35-.05,36.7.06,55.05,0,2.6-1,2.91-3.16,2.81-1.94-.09-3.51.23-3.49-2.77.14-18.43.07-36.86.07-55.29Z" transform="translate(-37.6 -93.54)"/><path class="cls-1" d="M139.08,109.8c-.27,1.32-.46,2-.55,2.73-.29,2.19-1.14,3.44-3.73,3.21a9.92,9.92,0,0,0-4.44,1c-2.09.86-2.86,2.61-2.84,4.89q.08,15,0,30c0,.94-.39,2.64-.79,2.7a19.74,19.74,0,0,1-5.26-.11c-.25,0-.47-1.28-.48-2,0-10.63,0-21.26,0-31.89,0-5.19,2.94-8.81,8.06-9.71C132.18,110.06,135.44,110.07,139.08,109.8Z" transform="translate(-37.6 -93.54)"/><path class="cls-1" d="M361,143.73h12.44l-6.57-10.61-12.08,19.17H349.3l14.69-23a3.49,3.49,0,0,1,5.71,0l14.73,23h-5.49L376.35,148H363.77L361,143.73M418.09,148V128h-4.66V150a2.21,2.21,0,0,0,.69,1.63,2.37,2.37,0,0,0,1.7.71H437L439.8,148H418.07m-77.15-3.6a8.2,8.2,0,0,0,0-16.4h-20.4v24.26h4.66v-20h15.45a3.93,3.93,0,1,1,0,7.85H327.49l13.92,12.12h6.76l-9.35-7.86h2.1m-49.06,7.86H306A12.13,12.13,0,0,0,306,128H291.86a12.13,12.13,0,1,0-.63,24.25h.63M305.63,148H292.17a7.85,7.85,0,0,1,0-15.7h13.46a7.85,7.85,0,0,1,.51,15.7h-.51m88.54,4.27h14.38l2.73-4.27H394.49a7.85,7.85,0,0,1-.51-15.7h14.17l2.76-4.28H394.17a12.13,12.13,0,0,0-.63,24.25h.63m57-4.27a7.85,7.85,0,0,1-7.56-5.72h19.93L466.3,138H443.63a7.83,7.83,0,0,1,7.56-5.71h13.67L467.6,128H450.87a12.13,12.13,0,0,0,0,24.25h14.38L468,148H451.18" transform="translate(-37.6 -93.54)"/><path class="cls-2" d="M243.76,138.06H229.4a.73.73,0,0,1-.73-.73V123a.73.73,0,0,0-.73-.73h-3.27a.73.73,0,0,0-.73.73v14.36a.73.73,0,0,1-.73.73H208.85a.73.73,0,0,0-.73.73v3.26a.73.73,0,0,0,.73.73h14.36a.73.73,0,0,1,.73.73v14.36a.73.73,0,0,0,.73.73h3.27a.73.73,0,0,0,.73-.73V143.51a.73.73,0,0,1,.73-.73h14.36a.73.73,0,0,0,.73-.73v-3.26A.73.73,0,0,0,243.76,138.06Z" transform="translate(-37.6 -93.54)"/></g></svg>