<?xml version="1.0" encoding="utf-8"?>
<!-- Generator: Adobe Illustrator 25.4.1, SVG Export Plug-In . SVG Version: 6.00 Build 0)  -->
<svg version="1.1" id="Capa_1" xmlns="http://www.w3.org/2000/svg" xmlns:xlink="http://www.w3.org/1999/xlink" x="0px" y="0px"
	 viewBox="0 0 302 500" style="enable-background:new 0 0 302 500;" xml:space="preserve">
<style type="text/css">
	.st0{display:none;}
	.st1{display:inline;}
	.st2{fill:#F5F5F5;}
	.st3{fill:#FFFFFF;}
	.st4{fill:#E0E0E0;}
	.st5{fill:#263238;}
	.st6{fill:#EBEBEB;}
	.st7{fill:#FAFAFA;}
	.st8{fill:#FF725E;}
	.st9{fill:#455A64;}
	.st10{opacity:0.3;}
	.st11{opacity:0.6;}
	.st12{fill:#B78876;}
	.st13{fill:#AA6550;}
</style>
<g id="Background_Complete" class="st0">
	<g class="st1">
		<g>
			<path class="st2" d="M-12.8,68.5c0-22.5-20.3-40.2-43.6-35.9C-71.1,35.3-82.8,47.3-85.4,62c-1.6,9.2,0.3,17.8,4.5,24.9h0l0.1,0.1
				c1.4,2.4,3.2,4.1,4.9,6.5l21.2,28.1c2.6,3.5,7.9,3.5,10.5,0l20.9-27.6c0,0,3.9-4.6,5.3-7l0.1-0.1h0
				C-14.7,81.5-12.8,75.2-12.8,68.5z M-49.4,84.4c-8.9,0-16.1-7.2-16.1-16.1s7.2-16.1,16.1-16.1s16.1,7.2,16.1,16.1
				C-33.3,77.2-40.5,84.4-49.4,84.4z"/>
		</g>
	</g>
	<g class="st1">
		<g>
			<path class="st2" d="M381.4,290.1c0-9.9-9-17.7-19.2-15.8c-6.5,1.2-11.6,6.5-12.7,13c-0.7,4,0.1,7.9,2,11h0l0,0.1
				c0.6,1,1.4,1.8,2.2,2.9l9.4,12.4c1.2,1.5,3.5,1.5,4.6,0l9.2-12.2c0,0,1.7-2,2.3-3.1l0,0h0C380.5,295.9,381.4,293.1,381.4,290.1z
				 M365.2,297.1c-3.9,0-7.1-3.2-7.1-7.1c0-3.9,3.2-7.1,7.1-7.1c3.9,0,7.1,3.2,7.1,7.1C372.3,294,369.2,297.1,365.2,297.1z"/>
		</g>
	</g>
	<g class="st1">
		<g>
			<g>
				<ellipse class="st2" cx="297.3" cy="388.7" rx="40.3" ry="40.3"/>
			</g>
		</g>
		<g>
			<g>
				<path class="st3" d="M297.3,422.2c-18.5,0-33.6-15.1-33.6-33.6s15.1-33.6,33.6-33.6s33.6,15.1,33.6,33.6
					S315.8,422.2,297.3,422.2z M297.3,360.8c-15.4,0-27.8,12.5-27.8,27.8s12.5,27.8,27.8,27.8c15.4,0,27.8-12.5,27.8-27.8
					S312.6,360.8,297.3,360.8z"/>
			</g>
		</g>
		<g>
			<g>
				<path class="st3" d="M297.1,400.1c-6.8,0-12.4-5.5-12.4-12.4s5.5-12.4,12.4-12.4s12.4,5.5,12.4,12.4
					C309.4,394.6,303.9,400.1,297.1,400.1z M297.1,381.2c-3.6,0-6.6,3-6.6,6.6s3,6.6,6.6,6.6s6.6-3,6.6-6.6S300.7,381.2,297.1,381.2
					z"/>
			</g>
		</g>
		<g>
			<g>
				<polygon class="st4" points="297.1,387.8 281.4,387.8 284.2,392.6 247.4,409.5 248.6,411.5 285.5,394.9 288,399.7 				"/>
			</g>
		</g>
		<g>
			<g>
				<path class="st4" d="M247.4,409.5l-0.4-0.4c-1.9-1.9-4.7-2.6-7.3-1.8l-14.7,4.3l8.2,3.6l-3.3,8.7l13.8-4.9
					c3.1-1.1,5.1-4.1,5-7.4l0,0L247.4,409.5z"/>
			</g>
		</g>
	</g>
	<g class="st1">
		<g>
			<g>
				<g>
					<path class="st4" d="M69.4,417.9c0,0,0.1,0,0.3-0.1c0.2-0.1,0.5-0.1,0.9-0.2c0.8-0.2,1.9-0.5,3.3-1c2.9-0.8,7.2-2,12.5-3.5
						l-0.1,0.2c-0.6-2.1-1.4-4.5-2.1-7.1l0-0.1l0.1-0.1c3.1-2.6,6.2-6,8.7-10.3c1.2-2.1,2.2-4.5,2.9-7c0.7-2.5,0.8-5.3,0.5-8
						c-0.9-5.5-3.6-11-8.2-15c-4.5-4-10.6-6.7-17-7.3c-4.8-0.5-9.6,0.6-13.7,2.7c-4.2,2-7.6,5-10.2,8.6c-2.6,3.5-3.9,7.6-4.4,11.6
						c-0.1,1-0.2,2-0.2,3s0.1,2,0.1,2.9c0.2,1.9,0.5,3.8,1,5.5c0.5,1.8,1.2,3.4,2,4.9c0.8,1.5,1.8,2.9,2.9,4.1
						c2.1,2.4,4.6,4.3,7,5.6c4.8,2.7,9.2,3.8,12.4,4.3l0.1,0l0,0.1c0.4,2,0.7,3.5,0.9,4.5c0.1,0.5,0.2,0.9,0.2,1.2
						C69.3,417.8,69.4,417.9,69.4,417.9c0,0,0-0.1-0.1-0.4c-0.1-0.3-0.2-0.6-0.3-1.1c-0.2-1-0.6-2.6-1.1-4.6l0.1,0.1
						c-3.2-0.4-7.7-1.5-12.6-4.2c-2.4-1.4-4.9-3.2-7.1-5.6c-1.1-1.2-2.1-2.6-3-4.1c-0.9-1.5-1.6-3.2-2.1-5c-0.5-1.8-0.9-3.7-1-5.6
						c0-1-0.1-2-0.1-3c0-1,0.1-2,0.2-3c0.5-4.1,1.8-8.3,4.4-11.9c2.6-3.6,6.1-6.7,10.4-8.8c4.2-2.1,9.1-3.3,14-2.8
						c6.6,0.6,12.7,3.4,17.3,7.5c2.3,2,4.2,4.5,5.6,7.1c0.4,0.6,0.7,1.3,0.9,2s0.6,1.3,0.8,2c0.2,0.7,0.4,1.4,0.6,2.1
						c0.1,0.7,0.2,1.4,0.4,2.1c0.3,2.8,0.2,5.6-0.5,8.2c-0.7,2.6-1.7,5-3,7.1c-2.6,4.3-5.7,7.7-8.9,10.3l0.1-0.2
						c0.8,2.6,1.4,5,2.1,7.1l0.1,0.2l-0.2,0c-5.4,1.4-9.7,2.6-12.6,3.4c-1.4,0.4-2.6,0.7-3.3,0.9c-0.4,0.1-0.6,0.2-0.9,0.2
						C69.4,417.9,69.3,417.9,69.4,417.9z"/>
				</g>
			</g>
		</g>
		<g>
			<g>
				<g>
					<path class="st4" d="M87.9,417.9c0,0.1-3.9,1.3-8.7,2.7c-4.8,1.3-8.8,2.3-8.8,2.1c0-0.1,3.9-1.3,8.7-2.7
						C83.9,418.8,87.9,417.8,87.9,417.9z"/>
				</g>
			</g>
		</g>
		<g>
			<g>
				<g>
					<path class="st4" d="M84.1,426.1c0.1,0.1-1.2,0.8-3,1.2c-1.8,0.4-3.2,0.4-3.2,0.3c0-0.2,1.4-0.4,3.1-0.8
						C82.7,426.4,84,426,84.1,426.1z"/>
				</g>
			</g>
		</g>
		<g>
			<g>
				<g>
					<path class="st4" d="M72.9,417c0,0,0-0.1-0.1-0.3c-0.1-0.2-0.1-0.5-0.2-0.9c-0.2-0.8-0.5-1.9-0.8-3.3c-0.7-2.9-1.7-7-3-12.1
						c-0.6-2.5-1.3-5.3-2-8.3c-0.2-0.7-0.4-1.5-0.9-2.1c-0.4-0.6-1.2-0.9-1.8-0.6c-0.6,0.3-0.9,1.1-0.9,1.9c0,0.8,0.4,1.5,0.9,2.1
						c1.1,1.2,2.9,1.8,4.6,1.5c1.7-0.2,3.3-1.4,4.1-3.1c0.8-1.6,1-3.6,0.6-5.4c-0.2-0.9-0.6-1.8-1.2-2.5c-0.6-0.6-1.7-0.8-2.4-0.3
						c-0.7,0.5-0.8,1.6-0.4,2.4c0.4,0.8,1.1,1.5,1.9,2c1.5,1.1,3.3,2,5.1,2.1c0.9,0.1,1.8,0,2.6-0.4c0.8-0.4,1.5-0.9,2.1-1.6
						s0.9-1.5,0.9-2.3c0.1-0.8-0.2-1.6-0.8-2.2c-0.5-0.6-1.3-0.9-2.1-0.7c-0.7,0.2-1.3,0.9-1.5,1.6c-0.5,1.5-0.1,3.1,0.1,4.6
						c0.5,3,1,5.9,1.5,8.4c1,5.1,1.9,9.3,2.5,12.2c0.3,1.4,0.5,2.5,0.7,3.3c0.1,0.4,0.1,0.6,0.2,0.9c0,0.2,0.1,0.3,0,0.3
						c0,0,0-0.1-0.1-0.3c-0.1-0.2-0.1-0.5-0.2-0.9c-0.2-0.8-0.4-1.9-0.8-3.3c-0.6-2.9-1.6-7-2.6-12.1c-0.5-2.6-1.1-5.4-1.6-8.4
						c-0.1-0.8-0.2-1.5-0.3-2.3s-0.1-1.7,0.2-2.5c0.3-0.8,0.9-1.6,1.8-1.9c0.9-0.3,1.9,0.1,2.6,0.8c0.6,0.7,1,1.7,0.9,2.6
						c0,1-0.4,1.9-1,2.6c-0.6,0.8-1.4,1.4-2.2,1.8c-0.9,0.4-1.9,0.5-2.9,0.4c-2-0.1-3.8-1-5.4-2.2c-0.8-0.6-1.6-1.3-2-2.3
						c-0.4-1-0.3-2.3,0.6-3c1-0.7,2.3-0.4,3.1,0.4c0.8,0.8,1.2,1.8,1.4,2.7c0.5,2,0.3,4-0.6,5.8c-0.9,1.8-2.6,3.1-4.5,3.4
						c-1.9,0.2-3.9-0.3-5.1-1.7c-0.6-0.7-1-1.6-1-2.5c0-0.9,0.3-1.9,1.2-2.3c0.4-0.2,0.9-0.2,1.4-0.1c0.4,0.2,0.8,0.5,1,0.8
						c0.5,0.7,0.8,1.5,0.9,2.2c0.7,3,1.4,5.8,2,8.4c1.2,5.1,2.1,9.2,2.8,12.1c0.3,1.4,0.6,2.5,0.7,3.3c0.1,0.4,0.1,0.6,0.2,0.9
						C72.9,416.9,72.9,417,72.9,417z"/>
				</g>
			</g>
		</g>
		<g>
			<g>
				<g>
					<path class="st4" d="M87.3,421.7c0,0.1-3.1,1.1-7,2.2c-3.9,1.1-7.1,1.8-7.2,1.7s3.1-1.1,7-2.2
						C84.1,422.3,87.3,421.5,87.3,421.7z"/>
				</g>
			</g>
		</g>
	</g>
</g>
<g id="Background_Simple" class="st0">
	<g class="st1">
		<path class="st2" d="M333.9,94.6l-2.4-4c-20.5-33.8-57.6-54.2-96.7-51.7c-5,0.3-10,1-15,2.1c-35.6,7.6-66.5,34.5-79.3,68.9
			c-7.5,20.2-9.6,43.6-24,59.6c-18.6,20.9-50.2,21.6-78.1,20.7c-27.8-0.9-59.4-0.1-78,20.9C-51.2,224.3-54.9,243-54,260.6
			c2.5,46.6,35,88.4,76.3,109.1c41.3,20.7,90,22.6,135.2,13.5c63.4-12.8,123.6-47.9,159.9-102C353.7,226.9,362.8,153.1,333.9,94.6z"
			/>
	</g>
	<g class="st1">
		<ellipse class="st2" cx="278.7" cy="398.1" rx="27.1" ry="27.1"/>
	</g>
</g>
<g id="Floor" class="st0">
	<g class="st1">
		<g>
			<path class="st5" d="M359.1,467.9c0,0.1-95.4,0.3-213.1,0.3c-117.7,0-213.1-0.1-213.1-0.3s95.4-0.3,213.1-0.3
				C263.7,467.6,359.1,467.7,359.1,467.9z"/>
		</g>
	</g>
</g>
<g id="Screen" class="st0">
	<g class="st1">
		<g>
			<rect x="-49.3" y="65.6" class="st4" width="390.9" height="25"/>
		</g>
		<g>
			<rect x="-49.4" y="113.6" class="st3" width="390.9" height="219.2"/>
		</g>
		<g>
			<polygon class="st6" points="-49.3,90.5 4.3,90.5 9.7,75 96.7,75 102,90.5 341.5,90.5 341.5,114.2 -49.3,114.2 			"/>
		</g>
		<g>
			<path class="st5" d="M-36.4,75.6c0,1.6-1.3,2.9-2.9,2.9c-1.6,0-2.9-1.3-2.9-2.9s1.3-2.9,2.9-2.9C-37.7,72.7-36.4,74-36.4,75.6z"
				/>
		</g>
		<g>
			<path class="st5" d="M-27.3,75.6c0,1.6-1.3,2.9-2.9,2.9s-2.9-1.3-2.9-2.9s1.3-2.9,2.9-2.9C-28.6,72.7-27.3,74-27.3,75.6z"/>
		</g>
		<g>
			<path class="st5" d="M-18.2,75.6c0,1.6-1.3,2.9-2.9,2.9s-2.9-1.3-2.9-2.9s1.3-2.9,2.9-2.9C-19.6,72.7-18.2,74-18.2,75.6z"/>
		</g>
		<g>
			<path class="st7" d="M298.3,109.4H30.2c-4.1,0-7.4-3.3-7.4-7.4l0,0c0-4.1,3.3-7.4,7.4-7.4h268.1c4.1,0,7.4,3.3,7.4,7.4l0,0
				C305.8,106.1,302.4,109.4,298.3,109.4z"/>
		</g>
		<g>
			<path class="st4" d="M36.6,103v2.5h-1.3v-2.3c0-0.7-0.3-1-0.9-1c-0.6,0-1.1,0.4-1.1,1.2v2.2h-1.3v-6.1h1.3v2.1
				c0.3-0.3,0.8-0.5,1.4-0.5C35.8,101.1,36.6,101.7,36.6,103z"/>
			<path class="st4" d="M40.6,105.3c-0.3,0.2-0.6,0.3-1,0.3c-1,0-1.6-0.5-1.6-1.6v-1.8h-0.7v-1h0.7v-1.1h1.3v1.1h1.1v1h-1.1v1.8
				c0,0.4,0.2,0.6,0.6,0.6c0.2,0,0.4-0.1,0.5-0.2L40.6,105.3z"/>
			<path class="st4" d="M44,105.3c-0.3,0.2-0.6,0.3-1,0.3c-1,0-1.6-0.5-1.6-1.6v-1.8h-0.7v-1h0.7v-1.1h1.3v1.1h1.1v1h-1.1v1.8
				c0,0.4,0.2,0.6,0.6,0.6c0.2,0,0.4-0.1,0.5-0.2L44,105.3z"/>
			<path class="st4" d="M49.5,103.3c0,1.4-1,2.3-2.2,2.3c-0.6,0-1-0.2-1.3-0.5v2.1h-1.3v-6H46v0.5c0.3-0.4,0.8-0.6,1.4-0.6
				C48.6,101.1,49.5,101.9,49.5,103.3z M48.2,103.3c0-0.8-0.5-1.2-1.1-1.2s-1.1,0.5-1.1,1.2s0.5,1.2,1.1,1.2S48.2,104.1,48.2,103.3z
				"/>
			<path class="st4" d="M50.1,101.8c0-0.5,0.4-0.8,0.8-0.8c0.4,0,0.8,0.3,0.8,0.8s-0.4,0.8-0.8,0.8
				C50.4,102.7,50.1,102.3,50.1,101.8z M50.1,104.8c0-0.5,0.4-0.8,0.8-0.8c0.4,0,0.8,0.3,0.8,0.8s-0.4,0.8-0.8,0.8
				C50.4,105.6,50.1,105.2,50.1,104.8z"/>
			<path class="st4" d="M54.8,98.6h1.1l-2.7,7.7h-1.1L54.8,98.6z"/>
			<path class="st4" d="M57.4,98.6h1.1l-2.7,7.7h-1.1L57.4,98.6z"/>
		</g>
		<g>
			<g>
				<path class="st7" d="M298.1,153.1H64.5c-7.3,0-13.2-5.9-13.2-13.2l0,0c0-7.3,5.9-13.2,13.2-13.2h233.6c7.3,0,13.2,5.9,13.2,13.2
					l0,0C311.3,147.2,305.4,153.1,298.1,153.1z"/>
			</g>
			<g>
				<g>
					<path class="st5" d="M298.1,153.1c0-0.1,2,0.2,5.4-1.2c1.6-0.8,3.6-2,5.2-4.2c0.8-1.1,1.5-2.4,1.9-3.8c0.5-1.5,0.7-3.1,0.5-4.8
						c-0.1-1.7-0.6-3.5-1.5-5.2c-0.9-1.7-2.2-3.2-3.9-4.5c-1.7-1.2-3.8-2.1-6-2.4c-1.1-0.1-2.3-0.1-3.5-0.1s-2.4,0-3.6,0
						c-9.9,0-21.1,0-33.6,0c-49.8,0-118.5,0.1-194.5,0.1c-2.3,0-4.6,0.6-6.6,1.8c-2,1.2-3.6,2.9-4.8,4.9c-2.2,4-2.1,9.2,0.4,13.1
						c1.2,1.9,2.9,3.5,4.9,4.6c2,1,4.2,1.6,6.5,1.5c4.6,0,9.1,0,13.6,0c17.9,0,35.2,0,51.6,0c32.9,0,62.5,0,87.4,0.1
						c24.9,0,45,0.1,58.9,0.1c7,0,12.4,0,16,0.1c1.8,0,3.2,0,4.2,0C297.6,153,298.1,153.1,298.1,153.1s-0.5,0-1.4,0
						c-1,0-2.3,0-4.2,0c-3.7,0-9.1,0-16,0.1c-13.9,0-34.1,0.1-58.9,0.1c-24.9,0-54.5,0-87.4,0.1c-16.5,0-33.7,0-51.6,0
						c-4.5,0-9,0-13.6,0c-2.3,0.1-4.7-0.5-6.7-1.6c-2.1-1.1-3.9-2.7-5.1-4.7c-2.6-4-2.7-9.4-0.4-13.6c1.2-2.1,2.9-3.9,4.9-5.1
						c2.1-1.3,4.5-1.9,6.9-1.9c75.9,0,144.7,0.1,194.5,0.1c12.4,0,23.7,0,33.6,0c1.2,0,2.5,0,3.6,0c1.2,0,2.4,0,3.5,0.1
						c2.3,0.3,4.4,1.1,6.1,2.4c1.7,1.3,3.1,2.9,4,4.6s1.4,3.6,1.5,5.3s-0.1,3.4-0.6,4.9s-1.2,2.8-2,3.9c-1.6,2.2-3.6,3.5-5.2,4.2
						c-1.7,0.8-3.1,0.9-4,1.1C298.6,153.1,298.1,153.1,298.1,153.1z"/>
				</g>
			</g>
		</g>
		<g>
			<path class="st4" d="M69.8,142.7l0.5-1.1c0.5,0.4,1.3,0.7,2.1,0.7c0.9,0,1.2-0.3,1.2-0.7c0-1.2-3.7-0.4-3.7-2.7
				c0-1.1,0.9-2,2.7-2c0.8,0,1.6,0.2,2.2,0.6l-0.4,1.1c-0.6-0.3-1.2-0.5-1.8-0.5c-0.9,0-1.2,0.3-1.2,0.7c0,1.2,3.7,0.4,3.7,2.7
				c0,1.1-0.9,2-2.7,2C71.4,143.4,70.4,143.1,69.8,142.7z"/>
			<path class="st4" d="M80.8,141.3h-3.7c0.1,0.6,0.6,1,1.4,1c0.5,0,0.9-0.1,1.2-0.5l0.8,0.8c-0.4,0.5-1.1,0.8-2,0.8
				c-1.7,0-2.8-1.1-2.8-2.5c0-1.5,1.1-2.5,2.6-2.5c1.4,0,2.5,1,2.5,2.5C80.8,141,80.8,141.1,80.8,141.3z M77,140.4h2.4
				c-0.1-0.6-0.6-1-1.2-1C77.6,139.4,77.1,139.8,77,140.4z"/>
			<path class="st4" d="M85.9,140.5v2.8h-1.3v-0.6c-0.3,0.4-0.8,0.7-1.5,0.7c-1.1,0-1.8-0.6-1.8-1.5c0-0.9,0.6-1.5,2.1-1.5h1.1
				c0-0.6-0.4-1-1.1-1c-0.5,0-1.1,0.2-1.4,0.4l-0.5-1c0.5-0.4,1.3-0.6,2.1-0.6C85,138.4,85.9,139.1,85.9,140.5z M84.5,141.8v-0.5h-1
				c-0.7,0-0.9,0.2-0.9,0.6c0,0.4,0.3,0.6,0.8,0.6C83.9,142.4,84.3,142.2,84.5,141.8z"/>
			<path class="st4" d="M90.2,138.4v1.3c-0.1,0-0.2,0-0.3,0c-0.8,0-1.3,0.4-1.3,1.4v2.3h-1.4v-4.9h1.4v0.6
				C88.9,138.6,89.5,138.4,90.2,138.4z"/>
			<path class="st4" d="M90.6,140.9c0-1.5,1.1-2.5,2.7-2.5c1,0,1.8,0.4,2.2,1.2l-1.1,0.6c-0.3-0.5-0.6-0.7-1.1-0.7
				c-0.7,0-1.3,0.5-1.3,1.4s0.6,1.4,1.3,1.4c0.4,0,0.8-0.2,1.1-0.7l1.1,0.6c-0.4,0.8-1.2,1.2-2.2,1.2
				C91.8,143.4,90.6,142.3,90.6,140.9z"/>
			<path class="st4" d="M101.3,140.5v2.8h-1.4v-2.6c0-0.8-0.4-1.1-1-1.1c-0.7,0-1.2,0.4-1.2,1.3v2.4h-1.4v-6.7h1.4v2.4
				c0.4-0.4,0.9-0.6,1.6-0.6C100.4,138.4,101.3,139,101.3,140.5z"/>
			<path class="st4" d="M104.8,142.5c0-0.5,0.4-0.9,0.9-0.9s0.9,0.3,0.9,0.9c0,0.5-0.4,0.9-0.9,0.9S104.8,143,104.8,142.5z"/>
			<path class="st4" d="M107.2,142.5c0-0.5,0.4-0.9,0.9-0.9s0.9,0.3,0.9,0.9c0,0.5-0.4,0.9-0.9,0.9S107.2,143,107.2,142.5z"/>
			<path class="st4" d="M109.6,142.5c0-0.5,0.4-0.9,0.9-0.9s0.9,0.3,0.9,0.9c0,0.5-0.4,0.9-0.9,0.9S109.6,143,109.6,142.5z"/>
		</g>
		<g>
			<g>
				<path d="M24.1,176c0,0.1-9.4,0.3-20.9,0.3c-11.6,0-20.9-0.1-20.9-0.3s9.4-0.3,20.9-0.3C14.7,175.8,24.1,175.9,24.1,176z"/>
			</g>
		</g>
		<g>
			<rect x="-17.8" y="188" class="st8" width="43.5" height="43.5"/>
		</g>
		<g>
			<g>
				<path d="M290.1,198.2c0,0.1-54,0.3-120.6,0.3c-66.6,0-120.6-0.1-120.6-0.3s54-0.3,120.6-0.3C236.1,198,290.1,198.1,290.1,198.2z
					"/>
			</g>
		</g>
		<g>
			<g>
				<path d="M114.9,214.6c0,0.1-14.2,0.3-31.8,0.3s-31.8-0.1-31.8-0.3s14.2-0.3,31.8-0.3C100.6,214.4,114.9,214.5,114.9,214.6z"/>
			</g>
		</g>
		<g>
			<g>
				<path class="st4" d="M251.6,229.8c0,0.1-44.9,0.3-100.1,0.3c-55.3,0-100.2-0.1-100.2-0.3s44.8-0.3,100.2-0.3
					C206.7,229.6,251.6,229.7,251.6,229.8z"/>
			</g>
		</g>
		<g>
			<g>
				<path d="M24.1,254c0,0.1-9.4,0.3-20.9,0.3c-11.6,0-20.9-0.1-20.9-0.3s9.4-0.3,20.9-0.3C14.7,253.7,24.1,253.8,24.1,254z"/>
			</g>
		</g>
		<g>
			<rect x="-17.8" y="265.9" class="st8" width="43.5" height="43.5"/>
		</g>
		<g>
			<g>
				<path d="M304.5,276.2c0,0.1-57.2,0.3-127.8,0.3c-70.6,0-127.8-0.1-127.8-0.3s57.2-0.3,127.8-0.3
					C247.3,275.9,304.5,276,304.5,276.2z"/>
			</g>
		</g>
		<g>
			<g>
				<path d="M114.9,292.6c0,0.1-14.2,0.3-31.8,0.3s-31.8-0.1-31.8-0.3s14.2-0.3,31.8-0.3C100.6,292.3,114.9,292.4,114.9,292.6z"/>
			</g>
		</g>
		<g>
			<g>
				<path class="st4" d="M286.5,307.8c0,0.1-52.7,0.3-117.6,0.3c-65,0-117.6-0.1-117.6-0.3s52.6-0.3,117.6-0.3
					C233.8,307.5,286.5,307.6,286.5,307.8z"/>
			</g>
		</g>
		<g>
			<g>
				<path class="st5" d="M341.5,333.4c0-1.7-0.1-104.8-0.2-267.8l0.2,0.2c-108.2,0-243.9,0-390.8,0.1h0l0.3-0.3
					c0,95.6,0,186.4,0,267.8l-0.2-0.2C181.2,333.3,339.4,333.4,341.5,333.4c-2.1,0-160.3,0.1-390.9,0.2h-0.2v-0.2
					c0-81.4,0-172.2,0-267.8v-0.3h0.3h0c146.9,0,282.6,0,390.8,0.1h0.2v0.2C341.6,228.6,341.5,331.6,341.5,333.4z"/>
			</g>
		</g>
		<g>
			<g>
				<path d="M86.1,85c0,0.1-13.8,0.3-30.8,0.3c-17,0-30.8-0.1-30.8-0.3s13.8-0.3,30.8-0.3S86.1,84.9,86.1,85z"/>
			</g>
		</g>
		<g>
			<rect x="-24.2" y="134.2" class="st9" width="54.7" height="16.5"/>
		</g>
		<g>
			<g>
				<path class="st8" d="M127.4,177.4c0,0.1-17,0.3-38,0.3c-21,0-38-0.1-38-0.3s17-0.3,38-0.3C110.4,177.1,127.4,177.3,127.4,177.4z
					"/>
			</g>
		</g>
		<g>
			<g>
				<path class="st8" d="M127.4,254c0,0.1-17,0.3-38,0.3c-21,0-38-0.1-38-0.3s17-0.3,38-0.3C110.4,253.7,127.4,253.8,127.4,254z"/>
			</g>
		</g>
		<g>
			<g>
				<path class="st8" d="M293.1,144.3c-3.5,0-6.4-2.9-6.4-6.4s2.9-6.4,6.4-6.4s6.4,2.9,6.4,6.4C299.4,141.4,296.6,144.3,293.1,144.3
					z M293.1,132.6c-3,0-5.4,2.4-5.4,5.4c0,2.9,2.4,5.4,5.4,5.4s5.4-2.4,5.4-5.4S296,132.6,293.1,132.6z"/>
			</g>
			<g>
				<path class="st8" d="M300.9,147.1c-0.1,0-0.2-0.1-0.4-0.1l-4.1-4.1c-0.2-0.2-0.2-0.5,0-0.7c0.2-0.2,0.5-0.2,0.7,0l4.1,4.1
					c0.2,0.2,0.2,0.5,0,0.7C301.1,147,301,147.1,300.9,147.1z"/>
			</g>
		</g>
		<g>
			<g>
				<path d="M195.9,213.5c0,0.1-16.4,0.3-36.6,0.3c-20.2,0-36.6-0.1-36.6-0.3s16.4-0.3,36.6-0.3
					C179.5,213.2,195.9,213.4,195.9,213.5z"/>
			</g>
		</g>
		<g>
			<g>
				<path d="M243.1,212.4c0,0.1-8.6,0.3-19.1,0.3c-10.6,0-19.1-0.1-19.1-0.3s8.6-0.3,19.1-0.3C234.6,212.1,243.1,212.2,243.1,212.4z
					"/>
			</g>
		</g>
		<g>
			<g>
				<path d="M195.5,292.6c0,0.1-16.4,0.3-36.6,0.3c-20.2,0-36.6-0.1-36.6-0.3s16.4-0.3,36.6-0.3
					C179.2,292.3,195.5,292.4,195.5,292.6z"/>
			</g>
		</g>
	</g>
</g>
<g id="Plant" class="st0">
	<g class="st1">
		<g>
			<path class="st9" d="M-0.8,313.2c-8.1,4.2-14.3,11.4-18.8,19.4c-4.5,8-7.4,16.7-10.2,25.4l-2.5,44.8c9.4-16.1,17-34.9,19.1-53.5
				c-2.1-0.2-4.2-0.4-6.3-0.6c4.2-0.6,7.8-3.7,10-7.3s3.4-7.8,4.5-11.9c-2.6,0.4-5.1,0.8-7.7,1.1C-6.7,326.6-2.3,320.2-0.8,313.2z"
				/>
		</g>
		<g class="st10">
			<g>
				<path d="M-0.8,313.2c-8.1,4.2-14.3,11.4-18.8,19.4c-4.5,8-7.4,16.7-10.2,25.4l-2.5,44.8c9.4-16.1,17-34.9,19.1-53.5
					c-2.1-0.2-4.2-0.4-6.3-0.6c4.2-0.6,7.8-3.7,10-7.3s3.4-7.8,4.5-11.9c-2.6,0.4-5.1,0.8-7.7,1.1C-6.7,326.6-2.3,320.2-0.8,313.2z"
					/>
			</g>
		</g>
		<g>
			<path class="st9" d="M-33.7,413.2c0,0-20.5-24.5-20.2-47.9h8.3c0,0-9-5.9-8.3-9.2s1-15.8,1-15.8l7.6,1.9c0,0-5.7-2.8-6.4-7.3
				s1.7-25.3,1.7-25.3s9.2,9.7,12.1,19.6s10.3,21.5,8.1,51.8C-32.2,411.1-33.7,413.2-33.7,413.2z"/>
		</g>
		<g>
			<path class="st9" d="M-23.3,415.5c0,0,22.2-14.8,27.1-33.7l-6.7-1.8c0,0,8.5-2.8,8.7-5.6s2.7-13,2.7-13L2,361.4
				c0,0,5.2-1,6.7-4.5c1.6-3.5,4.2-20.7,4.2-20.7s-9.5,5.8-14,13.1c-4.4,7.4-13,15-17.8,39.9C-23.7,414-23.3,415.5-23.3,415.5z"/>
		</g>
		<g>
			<g>
				<path class="st5" d="M-44.6,330.8c0,0,0,0.1,0.1,0.2c0,0.2,0.1,0.5,0.2,0.8c0.2,0.7,0.4,1.7,0.7,2.9c0.6,2.5,1.3,6.2,2.2,10.8
					c1.7,9.1,3.8,21.7,5.4,35.8c1.6,14,2.5,26.8,2.9,36.1c0.2,4.6,0.3,8.4,0.3,11c0,1.3,0,2.3,0,3c0,0.3,0,0.6,0,0.8
					c0,0.2,0,0.3,0,0.3c0,0,0-0.1,0-0.3c0-0.2,0-0.5,0-0.8c0-0.7-0.1-1.7-0.1-3c-0.1-2.6-0.2-6.3-0.5-11c-0.5-9.2-1.4-22-3-36
					c-1.6-14-3.6-26.7-5.3-35.8c-0.8-4.5-1.5-8.2-2-10.8c-0.2-1.2-0.4-2.2-0.6-2.9c0-0.3-0.1-0.6-0.1-0.8
					C-44.6,330.9-44.6,330.8-44.6,330.8z"/>
			</g>
		</g>
		<g>
			<path class="st9" d="M-36.5,428.2c0,0-18.8-21.3-24.6-34.1l4.4-1.9c-3.2,0.5-6.5-0.8-8.9-2.9c-2.5-2.1-4.3-4.8-6.1-7.5l5.8-1
				c-5.3-1.5-9.9-5.1-12.7-9.8c6.8,1.1,13,4.9,18.1,9.6c4.1,3.8,7.6,8.2,11,12.7c1.6,2.2,3.1,4.5,4.3,7
				C-42.1,406.8-36.5,420.4-36.5,428.2z"/>
		</g>
		<g>
			<g>
				<path class="st5" d="M4.1,348.5c0,0,0,0.1-0.1,0.2c-0.1,0.2-0.2,0.4-0.3,0.6c-0.3,0.6-0.7,1.4-1.1,2.4c-1,2-2.4,5-4.1,8.7
					c-3.4,7.4-8,17.7-12.5,29.2c-4.5,11.6-8,22.3-10.5,30c-1.2,3.9-2.2,7-2.8,9.2c-0.3,1.1-0.6,1.9-0.8,2.5
					c-0.1,0.3-0.2,0.5-0.2,0.6c-0.1,0.1-0.1,0.2-0.1,0.2c0,0,0-0.1,0-0.2c0-0.2,0.1-0.4,0.2-0.7c0.2-0.6,0.4-1.5,0.7-2.5
					c0.6-2.2,1.5-5.4,2.6-9.3c2.3-7.8,5.8-18.5,10.3-30.1c4.5-11.6,9.1-21.9,12.6-29.2c1.8-3.7,3.2-6.6,4.3-8.6
					c0.5-1,0.9-1.8,1.2-2.3c0.1-0.2,0.2-0.4,0.3-0.6C4.1,348.6,4.1,348.5,4.1,348.5z"/>
			</g>
		</g>
		<g>
			<g>
				<path class="st5" d="M-34.9,437.3c0,0-0.1-0.5-0.3-1.5c-0.2-1-0.4-2.4-0.8-4.1c-0.7-3.5-1.9-8.2-3.8-13.3
					c-1.9-5.1-4.2-9.4-5.9-12.5c-0.9-1.5-1.6-2.8-2.2-3.6c-0.5-0.8-0.8-1.3-0.8-1.3c0,0,0.4,0.4,1,1.2s1.4,2,2.3,3.5
					c1.9,3,4.2,7.4,6.1,12.5c1.9,5.1,3.1,9.9,3.7,13.4c0.3,1.8,0.5,3.2,0.6,4.2C-34.9,436.8-34.9,437.3-34.9,437.3z"/>
			</g>
		</g>
		<g>
			<rect x="-51.2" y="432.3" class="st8" width="41" height="8.4"/>
		</g>
		<g>
			<polygon class="st8" points="-47.3,440.7 -42.9,468.9 -18.1,468.9 -14,440.7 			"/>
		</g>
		<g>
			<g>
				<path class="st5" d="M-12.7,440.7c0,0.1-7.8,0.3-17.3,0.3s-17.3-0.1-17.3-0.3s7.8-0.3,17.3-0.3
					C-20.5,440.5-12.7,440.6-12.7,440.7z"/>
			</g>
		</g>
	</g>
</g>
<g id="Magnifying_Glass">
	<path class="st2" d="M239,181H20.7c-8.1,0-14.6-6.5-14.6-14.6V159c0-8.1,6.5-14.6,14.6-14.6H239c8.1,0,14.6,6.5,14.6,14.6v7.4
		C253.6,174.5,247.1,181,239,181z"/>
	<g>
		<g>
			<g>
				<g>
					<g>
						<g>
							<g>
								<path class="st5" d="M198.5,104.4c-9.3-4.4-17.4-11.7-22.7-21.4c-6.6-12-8.1-25.8-4.3-38.9c3.8-13.1,12.5-24,24.4-30.6
									c24.7-13.6,55.9-4.6,69.5,20.1l0,0c6.6,12,8.1,25.8,4.3,38.9s-12.5,24-24.4,30.6C230.2,111.3,212.9,111.3,198.5,104.4z
									 M241.1,15.3c-13.4-6.4-29.6-6.5-43.6,1.2c-11.2,6.1-19.3,16.3-22.8,28.5c-3.5,12.2-2.1,25.1,4,36.3s16.3,19.3,28.5,22.8
									s25.1,2.1,36.3-4s19.3-16.3,22.8-28.5c3.5-12.2,2.1-25.1-4-36.3C257.3,26.2,249.8,19.4,241.1,15.3z"/>
							</g>
						</g>
					</g>
				</g>
				<g>
					<g>
						<g>
							<g>
								<path class="st5" d="M284.8,160.3L284.8,160.3c-3,1.8-6.9,0.9-8.7-2.1L242.6,104c-0.3-0.5-0.2-1.2,0.4-1.5l7.1-4.4
									c0.5-0.3,1.2-0.2,1.5,0.3l35.2,52.9C288.7,154.4,287.8,158.4,284.8,160.3z"/>
							</g>
						</g>
					</g>
				</g>
			</g>
			<g>
				<g>
					<g>
						<g>
							<g>
								<path class="st9" d="M199.7,101.8c-9.3-4.4-17.4-11.7-22.7-21.4c-6.6-12-8.1-25.8-4.3-38.9c3.8-13.1,12.5-24,24.4-30.6
									c24.7-13.6,55.9-4.6,69.5,20.1l0,0c6.6,12,8.1,25.8,4.3,38.9c-3.8,13.1-12.5,24-24.4,30.6
									C231.5,108.8,214.1,108.7,199.7,101.8z M242.3,12.7c-13.4-6.4-29.6-6.5-43.6,1.2c-11.2,6.1-19.3,16.3-22.8,28.5
									c-3.5,12.2-2.1,25.1,4,36.3s16.3,19.3,28.5,22.8c12.2,3.5,25.1,2.1,36.3-4S264,81.2,267.6,69c3.5-12.2,2.1-25.1-4-36.3
									C258.5,23.6,251,16.8,242.3,12.7z"/>
							</g>
						</g>
					</g>
				</g>
				<g>
					<g>
						<g>
							<g>
								<path class="st9" d="M286.1,159.4l-0.5,0.3c-2.3,1.4-5.4,0.7-6.8-1.6l-35.6-57.6l9-5.5l35.6,57.6
									C289.2,154.9,288.5,158,286.1,159.4z"/>
							</g>
						</g>
					</g>
				</g>
			</g>
		</g>
		<g>
			<g>
				<g>
					<g>
						<path class="st4" d="M183.6,43.6c0,0,0.1-0.6,0.3-1.6c0.1-0.5,0.2-1.1,0.5-1.8c0.2-0.7,0.4-1.5,0.8-2.4
							c0.2-0.4,0.4-0.9,0.5-1.3c0.2-0.5,0.4-0.9,0.7-1.4c0.5-1,1.1-2,1.7-3c1.3-2.1,2.9-4.2,4.9-6.3c2-2,4.1-3.7,6.1-5.1
							c1-0.6,2-1.3,3-1.8c0.5-0.2,0.9-0.5,1.4-0.7c0.5-0.2,0.9-0.4,1.3-0.6c0.8-0.4,1.6-0.6,2.3-0.9c0.7-0.2,1.3-0.4,1.8-0.5
							c1-0.2,1.6-0.4,1.6-0.3s-0.5,0.2-1.5,0.5c-0.5,0.1-1.1,0.3-1.8,0.6c-0.7,0.3-1.5,0.5-2.3,0.9c-0.4,0.2-0.9,0.4-1.3,0.6
							c-0.5,0.2-0.9,0.5-1.4,0.7c-1,0.5-1.9,1.1-3,1.8c-2,1.4-4.1,3-6,5c-1.9,2-3.5,4.1-4.9,6.2c-0.6,1-1.2,2-1.7,3
							c-0.2,0.5-0.5,0.9-0.7,1.4c-0.2,0.5-0.4,0.9-0.6,1.3c-0.4,0.8-0.6,1.6-0.9,2.3c-0.3,0.7-0.4,1.3-0.5,1.8
							C183.8,43,183.6,43.6,183.6,43.6z"/>
					</g>
				</g>
			</g>
		</g>
	</g>
</g>
<g id="Character">
	<g>
		<g>
			<g>
				<g>
					<g>
						<g>
							<g>
								<g>
									<g>
										<g>
											<g>
												<g>
													<g>
														<g>
															<path class="st9" d="M177,469.6v20.8l-39.9-0.2c0.3-4.2,22.2-12.6,22.2-12.6l-0.4-8L177,469.6L177,469.6z"/>
														</g>
													</g>
												</g>
											</g>
										</g>
									</g>
								</g>
							</g>
						</g>
					</g>
					<g class="st11">
						<g>
							<g>
								<g>
									<g>
										<g>
											<g>
												<g>
													<g>
														<g>
															<g>
																<path class="st3" d="M170.5,475.7c0.8,0.2,1.3,1.2,1.1,2.1c-0.2,0.9-1.1,1.5-1.8,1.2s-1.4-1.4-1.1-2.2
																	c0.3-0.8,1.4-1.5,2-1"/>
															</g>
														</g>
													</g>
												</g>
											</g>
										</g>
									</g>
								</g>
							</g>
						</g>
					</g>
					<g>
						<g>
							<g>
								<g>
									<g>
										<g>
											<g>
												<g>
													<g>
														<g>
															<path class="st5" d="M177,490.4v-3.3l-38.1,0.5c0,0-2,1.2-1.8,2.6L177,490.4z"/>
														</g>
													</g>
												</g>
											</g>
										</g>
									</g>
								</g>
							</g>
						</g>
					</g>
					<g>
						<g>
							<g>
								<g>
									<g>
										<g>
											<g>
												<g>
													<g>
														<g>
															<g>
																<path class="st5" d="M159.3,478c0,0.2,1,0.3,1.9,1c1,0.7,1.4,1.6,1.6,1.5c0.2,0-0.1-1.3-1.2-2.2
																	C160.4,477.5,159.2,477.8,159.3,478z"/>
															</g>
														</g>
													</g>
												</g>
											</g>
										</g>
									</g>
								</g>
							</g>
						</g>
					</g>
					<g>
						<g>
							<g>
								<g>
									<g>
										<g>
											<g>
												<g>
													<g>
														<g>
															<g>
																<path class="st5" d="M154,479.9c0,0.2,0.8,0.6,1.4,1.5c0.7,0.9,0.8,1.9,1,1.9c0.2,0,0.3-1.2-0.5-2.4
																	C155.2,479.8,154,479.7,154,479.9z"/>
															</g>
														</g>
													</g>
												</g>
											</g>
										</g>
									</g>
								</g>
							</g>
						</g>
					</g>
					<g>
						<g>
							<g>
								<g>
									<g>
										<g>
											<g>
												<g>
													<g>
														<g>
															<g>
																<path class="st5" d="M151.7,485.2c0.2,0,0.5-1,0-2.2c-0.5-1.2-1.4-1.7-1.5-1.5c-0.1,0.2,0.5,0.8,0.9,1.8
																	C151.4,484.3,151.5,485.2,151.7,485.2z"/>
															</g>
														</g>
													</g>
												</g>
											</g>
										</g>
									</g>
								</g>
							</g>
						</g>
					</g>
					<g>
						<g>
							<g>
								<g>
									<g>
										<g>
											<g>
												<g>
													<g>
														<g>
															<g>
																<path class="st5" d="M159.6,472.1c0.1,0.2,1-0.1,2.1,0c1.1,0.1,1.9,0.5,2,0.3c0.1-0.1-0.7-1-2-1.1
																	C160.5,471.2,159.6,471.9,159.6,472.1z"/>
															</g>
														</g>
													</g>
												</g>
											</g>
										</g>
									</g>
								</g>
							</g>
						</g>
					</g>
				</g>
			</g>
		</g>
		<g>
			<g>
				<g>
					<g>
						<path class="st5" d="M159.4,478.9c0,0-0.1-0.4-0.1-1.3c0.1-0.8,0.3-2,1.1-3.3c0.4-0.6,0.9-1.2,1.6-1.7
							c0.3-0.2,0.8-0.5,1.4-0.2c0.5,0.2,0.8,0.8,0.8,1.4c0,2.1-1.5,4.1-3.5,4.9c-2,0.8-4.2-0.2-5.4-1.7c-0.3-0.4-0.6-0.8-0.7-1.3
							c-0.1-0.2-0.1-0.5,0-0.8c0.1-0.3,0.3-0.5,0.5-0.6c0.5-0.2,0.9,0,1.2,0.1c0.4,0.2,0.6,0.4,0.9,0.6c1.1,0.8,1.9,1.7,2.3,2.4
							c0.4,0.7,0.6,1.1,0.5,1.1c-0.1,0.1-0.8-1.6-3-3.1c-0.5-0.3-1.2-0.8-1.8-0.6c-0.2,0.1-0.4,0.4-0.2,0.8c0.1,0.4,0.4,0.7,0.6,1.1
							c1.1,1.3,3,2.1,4.8,1.5c1.8-0.6,3.1-2.5,3.2-4.2c0-0.4-0.2-0.8-0.5-0.9c-0.3-0.1-0.6,0-0.9,0.2c-0.6,0.4-1.1,1-1.5,1.5
							c-0.8,1.1-1,2.3-1.2,3C159.5,478.5,159.5,478.9,159.4,478.9z"/>
					</g>
				</g>
			</g>
		</g>
		<g>
			<g>
				<g>
					<g>
						<g>
							<g>
								<g>
									<polygon class="st9" points="191.6,472.6 190.9,478 191.4,490 206.3,490.4 206.9,478 205.1,470.6 									"/>
								</g>
							</g>
						</g>
					</g>
				</g>
			</g>
		</g>
		<g>
			<g>
				<g>
					<g>
						<g>
							<g>
								<g>
									<g>
										<path class="st5" d="M198.8,489.1c0.1,0-0.1-3.7-0.5-8.2c-0.4-4.5-0.7-8.2-0.8-8.2s0.1,3.7,0.5,8.2
											C198.3,485.4,198.7,489.1,198.8,489.1z"/>
									</g>
								</g>
							</g>
						</g>
					</g>
				</g>
			</g>
		</g>
		<g>
			<g>
				<g>
					<g>
						<g>
							<g>
								<g>
									<polygon class="st5" points="191.3,488 206.4,488.2 206.4,490.4 191.3,490.4 									"/>
								</g>
							</g>
						</g>
					</g>
				</g>
			</g>
		</g>
		<g>
			<g>
				<g>
					<g>
						<g>
							<g>
								<g>
									<g>
										<path class="st5" d="M206.4,481.1c0,0-0.1-0.2-0.4-0.6c-0.3-0.4-0.7-0.9-1.3-1.5c-0.6-0.6-1.4-1.2-2.4-1.7
											c-1-0.5-2.2-0.9-3.5-0.9c-2.6,0-4.8,1.3-5.8,2.7c-0.6,0.6-0.9,1.3-1.1,1.7c-0.2,0.4-0.3,0.7-0.2,0.7c0.1,0,0.4-1,1.6-2.2
											c1.1-1.2,3.1-2.4,5.6-2.4c2.5,0,4.5,1.3,5.7,2.3C205.7,480.3,206.3,481.1,206.4,481.1z"/>
									</g>
								</g>
							</g>
						</g>
					</g>
				</g>
			</g>
		</g>
		<g>
			<g>
				<g>
					<g>
						<g>
							<g>
								<g>
									<path class="st12" d="M198.8,136.3l0.2,54.3l-22.2,1.1l-0.6-13.2c0,0-7.9,1.6-9.9-6c-1.3-4.9-1-42.8-1-42.8L198.8,136.3z"
										/>
								</g>
							</g>
						</g>
					</g>
				</g>
			</g>
			<g>
				<g>
					<g>
						<g>
							<g>
								<g>
									<path class="st5" d="M162.3,133.4c3.5,1.1,4.3,7.1,4.3,7.1l5.5,12.7c2.8-2.3,6.5-2.2,7.3,3c0.5,3.7-3.9,4.5-3.9,4.5
										c2.6,4.6,4.3,8.3,8,12.6c4,4.7,6.3,5.2,10.7,5.3h4.8c0,0,2.4-8.1,6.8-28.2c4.9-22.4-20.4-19.5-25-25.2
										C173.1,115.8,151.3,130.1,162.3,133.4z"/>
								</g>
							</g>
						</g>
					</g>
				</g>
			</g>
			<g>
				<path class="st5" d="M156.1,128.6c0.4-2.4,2.5-4.4,4.8-4.2c-0.8-1.2-0.4-3,0.6-4s2.6-1.2,4-1c1.4,0.2,2.7,0.9,4,1.5
					c0.2-1.1,1.6-3,2.6-3.6c2-1.1,3.2-1.1,4.3-1.1c6.8,0,10.4,4.9,14.1,9.9c0.6,0.9,1.2,1.8,2.2,2.2c0.6,0.3,1.4,0.2,2.1,0.2
					c5.2,0.1,10.2,3.4,12.6,8.2s4.2,16-2,23l-3.7,8.7L166,138.7c-0.2,0.1-2.5,1.3-4.2,0.3c-4.3-2.4-2.5-6.3-2.5-6.3
					C159,132.6,155.8,130.9,156.1,128.6z"/>
			</g>
			<g>
				<g>
					<g>
						<g>
							<path class="st9" d="M189.1,157.6c-0.1,0-0.4,1.9,0.1,4.1c0.5,2.3,1.5,3.9,1.6,3.8c0.1-0.1-0.6-1.7-1-3.9
								C189.3,159.5,189.3,157.6,189.1,157.6z"/>
						</g>
					</g>
				</g>
			</g>
			<g>
				<g>
					<g>
						<g>
							<path class="st9" d="M186.4,155c-0.1,0-0.2,1.8,0.2,4c0.4,2.2,1,3.8,1.2,3.8c0.1-0.1-0.2-1.8-0.6-3.9
								C186.8,156.7,186.6,155,186.4,155z"/>
						</g>
					</g>
				</g>
			</g>
			<g>
				<g>
					<g>
						<g>
							<path class="st9" d="M178.7,146c0,0.1,0.6,0.6,1.4,1.5c0.8,1,1.7,2.5,2.4,4.3s1,3.6,1.3,4.9c0.3,1.3,0.5,2.1,0.5,2.1
								c0.1,0,0-0.8-0.2-2.1c-0.2-1.3-0.5-3.1-1.2-5s-1.7-3.5-2.6-4.4C179.5,146.3,178.8,146,178.7,146z"/>
						</g>
					</g>
				</g>
			</g>
			<g>
				<g>
					<g>
						<g>
							<path class="st9" d="M175.6,139.9c-0.1,0-0.3,0.5-0.4,1.5c-0.1,0.9-0.1,2.3,0.2,3.7c0.3,1.4,1,2.6,1.5,3.4
								c0.5,0.8,1,1.1,1,1.1c0.1-0.1-1.4-1.9-2-4.6C175.2,142.2,175.8,139.9,175.6,139.9z"/>
						</g>
					</g>
				</g>
			</g>
			<g>
				<g>
					<g>
						<g>
							<path class="st9" d="M202.1,153.5c0.1,0.1,0.8-0.1,1.5-0.6c0.8-0.4,1.3-0.9,1.2-1.1c-0.1-0.1-0.8,0.1-1.5,0.6
								C202.6,152.9,202,153.3,202.1,153.5z"/>
						</g>
					</g>
				</g>
			</g>
			<g>
				<g>
					<g>
						<g>
							<path class="st9" d="M191.4,147.7c-0.1,0-0.1,1.2,0.6,2.4c0.7,1.2,1.6,1.8,1.7,1.7c0.1-0.1-0.6-0.9-1.2-2
								C191.9,148.6,191.5,147.6,191.4,147.7z"/>
						</g>
					</g>
				</g>
			</g>
			<g>
				<g>
					<g>
						<g>
							<path class="st9" d="M188.1,145.8c-0.1,0,0.1,1.4,1,2.8c0.9,1.4,2,2.2,2.1,2.1c0.1-0.1-0.8-1.1-1.6-2.4
								C188.7,147,188.2,145.8,188.1,145.8z"/>
						</g>
					</g>
				</g>
			</g>
			<g>
				<g>
					<g>
						<g>
							<path class="st9" d="M171.7,123.1c0,0.1,0.4-0.3,1.2-0.8c0.8-0.5,2.1-1,3.7-1c1.6-0.1,3.6,0.3,5.5,1.5
								c1.8,1.2,3.5,3.1,4.6,5.4c0.9,1.7,1.5,3.4,1.9,5.1l0.1,0.3l0.3-0.2c1.6-0.9,3.4-1.3,5-1.3c1.6-0.1,2.9,0.3,4,0.6
								c2.2,0.8,3.2,1.8,3.3,1.7c0,0-0.2-0.3-0.7-0.7c-0.5-0.4-1.3-0.9-2.4-1.4c-1.1-0.4-2.5-0.8-4.1-0.8c-1.6,0-3.5,0.4-5.2,1.3
								l0.4,0.2c-0.4-1.7-1-3.5-1.9-5.2c-1.2-2.4-2.9-4.4-4.9-5.6s-4-1.6-5.7-1.5c-1.7,0.1-3,0.7-3.8,1.2c-0.4,0.3-0.7,0.5-0.9,0.7
								C171.8,123,171.7,123.1,171.7,123.1z"/>
						</g>
					</g>
				</g>
			</g>
			<g>
				<g>
					<g>
						<g>
							<path class="st9" d="M160,126.1c0,0-0.6-0.2-1.3,0.6c-0.3,0.4-0.6,1-0.5,1.7c0.1,0.7,0.5,1.5,1.3,1.9
								c0.7,0.5,1.7,0.6,2.7,0.4c1-0.2,1.9-0.8,2.8-1.4c0.9-0.6,1.7-1.4,2.7-2s2.1-1,3.3-1.2c2.4-0.5,4.7-0.2,6.7,0.5
								c2,0.7,3.6,1.7,5,2.6c2.6,2,3.9,3.6,4,3.5c0,0-0.3-0.4-0.9-1.1c-0.6-0.7-1.5-1.7-2.8-2.7c-1.3-1-3-2.1-5-2.8s-4.5-1-7-0.5
								c-1.2,0.2-2.4,0.7-3.4,1.3c-1,0.6-1.9,1.4-2.8,2c-0.8,0.6-1.7,1.2-2.6,1.4c-0.9,0.2-1.7,0.1-2.4-0.3c-0.7-0.4-1.1-1-1.2-1.6
								c-0.1-0.6,0.1-1.2,0.4-1.5C159.4,126.1,160,126.1,160,126.1z"/>
						</g>
					</g>
				</g>
			</g>
		</g>
		<g>
			<path class="st12" d="M56.6,167.7c0.8-0.8,12.1,4.2,12.1,4.2s8.4,6.9,11.9,11l2.1,1.9l32.1,26.2l39.5-17.2l8.6,23.1
				c0,0-44.3,18.5-51.1,15.3c-7.3-3.4-34.6-33.4-34.7-33.5l0,0l-3.9-4c0,0-2.1,0-3.7-0.1s-6.2-3.3-6.2-3.3s-0.7-1.3-0.9-2.8
				s0.9-2.1,0.9-2.1s-0.3-1-0.1-2.3c0.2-1.3,1.9-2.9,1.9-2.9s-0.7-0.6-1.1-2.1c-0.4-1.5,1.5-3,1.5-3s-6.6-4.7-8.2-5.5
				C55.7,169.8,55.7,168.5,56.6,167.7z"/>
		</g>
		<g>
			<g>
				<path class="st5" d="M148.5,404.2c-0.1-1.5-0.2-2.7-0.2-3.4l-4.5-74.6c0,0,3.8-21.8,5.5-27.6l15.9-6.5l21.2,8.7
					c0.1-1.8,0.2-2.9,0.2-2.9l31.3,11.3c0,0,0.8,22.4,0,29.2c-0.3,2.2-1.1,7.8-2.1,14.5l0,0c0,0-1,14.5-1.2,15.3
					c-0.8,3-0.9,10.2-0.9,17.4c0,9.2-0.5,20.1-1,25.4c-0.5,5.2-0.8,62.4-0.8,62.4h-23.1l-3-91.2c-0.5-9.8-1.2-24.7-1.7-35.5
					l-5.4,33.7c0,1.2-3.3,20.5-3.3,20.5s1.2,9,1.4,18.3c0.4,17,2.3,54.3,2.3,54.3h-22.6l0,0C156.6,473.4,149.8,419.5,148.5,404.2
					L148.5,404.2L148.5,404.2z"/>
			</g>
			<g>
				<path class="st9" d="M144.6,321.7c0,0,0.9-0.3,2.1-1.2s2.9-2.1,4.5-3.7s2.9-3.3,3.7-4.6c0.8-1.3,1.2-2.1,1.2-2.1
					c-0.1,0-0.6,0.7-1.5,1.9c-0.9,1.2-2.2,2.8-3.7,4.4c-1.6,1.6-3.1,2.9-4.3,3.8C145.4,321.1,144.6,321.6,144.6,321.7z"/>
			</g>
			<g>
				<path class="st9" d="M184.9,335.3c0,0,0.2-0.2,0.4-0.7c0.3-0.5,0.6-1.2,1-2.1c0.8-1.9,1.6-4.5,2.1-7.5c0.5-3,0.6-5.8,0.5-7.9
					c0-1-0.1-1.8-0.2-2.4c-0.1-0.6-0.1-0.9-0.2-0.9c-0.1,0,0,1.2,0,3.2c0,2-0.1,4.8-0.6,7.8c-0.5,3-1.3,5.6-1.9,7.5
					C185.3,334.1,184.8,335.2,184.9,335.3z"/>
			</g>
			<g>
				<g>
					<path class="st9" d="M181.5,363.4c0,0,0.1-0.5,0.3-1.3c0.2-1,0.4-2.1,0.6-3.6c0.5-3.1,1.2-7.2,1.9-11.8
						c1.3-8.4,2.1-14.1,2.5-16.7c-0.1,0-0.5,1.8-1.1,4.8c-0.5,3-1.2,7.2-2,11.8c-0.7,4.6-1.3,8.8-1.8,11.8c-0.2,1.4-0.3,2.6-0.5,3.6
						C181.5,362.9,181.5,363.4,181.5,363.4z"/>
				</g>
			</g>
		</g>
		<g>
			<g>
				<path class="st12" d="M236,238.9c0,0,3,22.5,3.6,30.4c0.3,4.7-4.2,11-7.8,11.5c-3.6,0.5-15.3,1.2-15.3,1.2l-1-14.1l0.3-2.8
					l3.7-0.7l-1.1-22.4L236,238.9z"/>
			</g>
			<g>
				<g>
					<path class="st13" d="M218.9,242.7c0,0-0.1,0.4-0.1,1.2c-0.1,0.8-0.1,1.9-0.1,3.3c-0.1,2.8,0,6.7,0.2,11s0.6,8.2,0.8,11
						c0.1,1.4,0.2,2.5,0.4,3.3c0.1,0.8,0.2,1.2,0.2,1.2c0,0,0-0.4,0-1.2c0-0.9-0.1-2-0.2-3.3c-0.2-2.9-0.4-6.8-0.7-11
						c-0.2-4.3-0.4-8.2-0.4-11c0-1.3,0-2.4,0-3.3C218.9,243.1,218.9,242.7,218.9,242.7z"/>
				</g>
			</g>
		</g>
		<g class="st10">
			<g>
				<path d="M217.7,309.6c-6,2.3-12.6,2.5-19,2s-12.7-1.9-19.1-2.6c-9.6-1-19.4-0.3-28.9,2c-0.7,0.2-1.4,0.3-2,0.2
					c-0.7-0.1-1.3-0.6-1.4-1.3c-0.2-1.1,1-1.9,2-2.3c21.7-9.6,47.3-9,68.6,1.6"/>
			</g>
		</g>
		<g>
			<g>
				<path class="st8" d="M125.8,204l33.9-17.7c8.9-1.1,16.1-0.7,16.1-0.7h22.4c0,0,27.2,8.4,31.6,16.1l11.6,36.6l-23,3.6l0,0
					l-2.9,26.3c0,0,2.9,30.5,2.9,34.9c0,4.4-0.4,6.1-0.4,6.1s-46-7.3-57.4-3.5c-11.3,3.9-14.4,3.5-14.4,3.5s0.9-12.6,1.8-20
					l2.6-36.7l1.9-28l-21.3,6.8L125.8,204z"/>
			</g>
			<g>
				<path class="st5" d="M218.6,242.2c0.1,0,0.3-1.5,0.8-3.9c0.5-2.4,1.4-5.8,2.7-9.3c1.3-3.6,2.8-6.7,4-8.9c0.5-1,1-1.9,1.4-2.6
					c0.3-0.6,0.5-1,0.5-1s-0.3,0.3-0.6,0.9c-0.4,0.6-0.9,1.5-1.5,2.6c-1.2,2.2-2.8,5.3-4.1,8.9s-2.1,7-2.5,9.4
					c-0.2,1.2-0.4,2.2-0.4,2.9C218.6,241.9,218.6,242.2,218.6,242.2z"/>
			</g>
			<g>
				<path class="st5" d="M175.2,252.6c0,0,0,0.2,0.1,0.5c0.1,0.4,0.3,0.8,0.4,1.4c0.2,0.6,0.4,1.3,0.8,2.1c0.3,0.8,0.6,1.8,1.1,2.8
					c0.8,2,1.9,4.4,3.3,7c1.4,2.6,3,5.3,4.8,8.1c1.9,2.8,3.8,5.3,5.6,7.5c1.9,2.2,3.6,4.1,5.1,5.6c0.8,0.8,1.5,1.4,2.1,2
					c0.6,0.6,1.2,1.1,1.6,1.5c0.4,0.4,0.8,0.6,1.1,0.9c0.2,0.2,0.4,0.3,0.4,0.3c0,0-0.1-0.1-0.3-0.4c-0.3-0.3-0.6-0.6-1-1
					c-0.4-0.4-1-0.9-1.6-1.5c-0.6-0.6-1.3-1.3-2-2.1c-1.5-1.5-3.2-3.5-5-5.7c-1.8-2.2-3.7-4.7-5.5-7.5c-1.8-2.8-3.4-5.5-4.8-8
					c-1.4-2.5-2.5-4.9-3.3-6.9c-0.5-1-0.8-1.9-1.1-2.7c-0.3-0.8-0.6-1.5-0.8-2.1c-0.2-0.5-0.4-1-0.5-1.3
					C175.3,252.8,175.2,252.6,175.2,252.6z"/>
			</g>
			<g>
				<g>
					<path class="st5" d="M159.5,188.7c-0.1,0.1,1.3,1.5,1.8,4.5c0.3,1.5,0.3,3.3,0,5.2c-0.3,2-0.9,4.1-1.4,6.3
						c-1.2,4.5-2.4,8.5-3.3,11.4c-0.5,1.4-0.8,2.5-1.1,3.4c-0.3,0.8-0.4,1.3-0.4,1.3c0,0,0.2-0.4,0.5-1.2c0.3-0.8,0.8-1.9,1.3-3.4
						c1-2.9,2.3-6.9,3.5-11.3c0.6-2.2,1.1-4.4,1.4-6.4c0.3-2,0.2-3.9-0.1-5.4c-0.3-1.5-0.9-2.7-1.3-3.4
						C159.9,189,159.6,188.7,159.5,188.7z"/>
				</g>
			</g>
		</g>
		<g>
			<g>
				<path class="st3" d="M223.4,227.2c0,0,0.6,0.7,1.8,1.3c1.2,0.6,3.1,1.1,5.2,0.8s3.8-1.4,4.8-2.4c1-1,1.4-1.8,1.4-1.8
					c-0.1-0.1-0.6,0.6-1.6,1.5c-1,0.9-2.6,1.8-4.6,2.1c-2,0.3-3.8-0.1-5-0.6C224.1,227.7,223.5,227.2,223.4,227.2z"/>
			</g>
		</g>
		<g>
			<g>
				<path class="st3" d="M158.5,210.7c0,0,0.1,0.3,0.3,0.8c0.2,0.5,0.5,1.2,1,2.1c1,1.8,2.5,4.3,5,6.9c2.5,2.5,6.2,5.1,10.8,6.1
					c2.3,0.5,4.8,0.7,7.3,0.3c2.5-0.4,5-1.4,7.4-2.8c4.7-2.7,8.6-6.2,13-7.9c4.3-1.7,8.6-1.5,12-0.7c3.4,0.9,5.9,2.4,7.4,3.6
					c1.6,1.2,2.3,2.1,2.3,2c0,0-0.7-0.9-2.2-2.2c-1.5-1.2-4-2.9-7.5-3.8c-3.4-0.9-7.8-1.1-12.2,0.6c-4.4,1.7-8.4,5.2-13,7.9
					c-2.3,1.3-4.7,2.3-7.2,2.7c-2.5,0.4-4.9,0.2-7.1-0.3c-4.5-1-8.1-3.5-10.6-5.9c-2.5-2.5-4.1-5-5.1-6.7c-0.5-0.9-0.8-1.6-1.1-2.1
					C158.7,211,158.5,210.7,158.5,210.7z"/>
			</g>
		</g>
		<g>
			<g>
				<path class="st3" d="M137.3,197.9c0,0-0.2,0.4-0.4,1.1c-0.2,0.8-0.5,1.9-0.6,3.3c-0.1,1.4,0,3.2,0.5,5c0.5,1.8,1.4,3.8,2.7,5.5
					c1.3,1.7,2.9,3,4.2,4.2c1.3,1.2,2.3,2.5,2.9,3.8c0.6,1.3,0.7,2.4,0.6,3.2c-0.1,0.8-0.2,1.2-0.2,1.2c0,0,0.1-0.1,0.1-0.3
					s0.2-0.5,0.2-0.9c0.1-0.8,0-2-0.5-3.4c-0.5-1.4-1.6-2.7-2.9-4c-1.3-1.3-2.9-2.5-4.2-4.2c-2.6-3.3-3.3-7.4-3.2-10.1
					C136.8,199.6,137.4,197.9,137.3,197.9z"/>
			</g>
		</g>
		<g>
			<g>
				<path class="st3" d="M192.4,282.2c0,0,0.3,0.2,1,0.4c0.6,0.2,1.6,0.5,2.8,0.6c1.2,0.1,2.7,0.3,4.3-0.3c0.8-0.3,1.6-0.7,2.2-1.3
					c0.7-0.6,1.2-1.4,1.8-2.1c0.6-0.7,1.2-1.4,1.9-1.9c0.7-0.5,1.5-0.8,2.2-1.1c1.5-0.5,2.9-0.5,4.1-0.4c1.2,0.1,2.1,0.5,2.7,0.8
					c0.6,0.3,0.9,0.5,1,0.5c0,0-0.3-0.3-0.9-0.6c-0.6-0.4-1.5-0.8-2.7-1c-1.2-0.2-2.7-0.2-4.3,0.3c-0.8,0.2-1.6,0.6-2.3,1.1
					c-0.7,0.5-1.4,1.2-2,1.9c-0.6,0.7-1.1,1.5-1.8,2.1c-0.6,0.6-1.3,1-2.1,1.2c-1.5,0.5-2.9,0.5-4.1,0.4
					C193.9,282.6,192.4,282.1,192.4,282.2z"/>
			</g>
		</g>
		<g>
			<g>
				<path class="st3" d="M148.6,280.1c0,0,0.1,0.1,0.3,0.3c0.2,0.1,0.5,0.4,0.9,0.7c0.8,0.5,2.1,1.2,3.8,1.7
					c1.7,0.4,3.9,0.7,6.2,0.4c2.3-0.3,4.8-1.3,7-3c2.2-1.7,3.9-3.7,5.6-5.3c1.7-1.6,3.4-2.9,5-3.6c1.6-0.7,3-0.9,4-0.9
					c1,0,1.5,0.2,1.5,0.1c0,0-0.1-0.1-0.4-0.1c-0.2-0.1-0.6-0.1-1.1-0.2c-1-0.1-2.5,0.1-4.1,0.8c-1.6,0.7-3.4,1.9-5.2,3.6
					c-1.7,1.6-3.5,3.6-5.6,5.2c-2.1,1.6-4.5,2.6-6.8,2.9c-2.3,0.4-4.4,0.1-6-0.3c-1.7-0.4-3-1-3.8-1.5
					C149,280.4,148.6,280,148.6,280.1z"/>
			</g>
		</g>
	</g>
</g>
</svg>
